<?xml version="1.0" encoding="UTF-8" ?>
<!DOCTYPE svg PUBLIC "-//W3C//DTD SVG 1.1//EN" "http://www.w3.org/Graphics/SVG/1.1/DTD/svg11.dtd">
<svg width="502pt" height="502pt" viewBox="0 0 502 502" version="1.1" xmlns="http://www.w3.org/2000/svg">
<path fill="#ffffff" d=" M 0.00 0.00 L 502.00 0.00 L 502.00 243.86 L 501.84 242.65 C 501.03 234.09 500.89 225.46 499.50 216.96 C 498.30 208.63 496.79 200.35 494.78 192.18 C 492.96 184.90 490.91 177.68 488.38 170.62 C 485.60 162.30 482.29 154.16 478.57 146.22 C 474.01 136.87 469.24 127.60 463.54 118.89 C 455.27 105.91 445.96 93.56 435.40 82.35 C 412.55 57.96 385.00 37.70 354.29 24.39 C 319.81 8.79 281.78 1.07 243.94 2.08 C 210.82 3.16 177.87 10.71 147.68 24.41 C 116.98 37.71 89.43 57.98 66.59 82.37 C 56.03 93.58 46.72 105.92 38.45 118.90 C 32.10 128.70 26.73 139.12 21.83 149.71 C 18.28 157.47 15.31 165.48 12.61 173.57 C 10.06 180.99 8.05 188.59 6.27 196.22 C 4.62 203.42 3.38 210.71 2.34 218.02 C 1.14 225.98 0.87 234.01 0.27 242.03 C 0.20 242.63 0.07 243.85 0.00 244.46 L 0.00 0.00 Z" />
<path fill="#051c5b" d=" M 147.68 24.41 C 177.87 10.71 210.82 3.16 243.94 2.08 C 281.78 1.07 319.81 8.79 354.29 24.39 C 356.32 27.56 360.62 28.10 363.59 30.15 C 357.87 31.84 351.89 30.74 346.04 30.95 C 335.56 31.17 325.05 30.58 314.59 31.40 C 272.50 16.65 225.44 16.64 183.36 31.43 C 174.58 30.58 165.76 31.13 156.96 30.98 C 150.77 30.78 144.46 31.76 138.39 30.17 C 141.36 28.13 145.62 27.56 147.68 24.41 Z" />
<path fill="#7cb8e8" d=" M 183.36 31.43 C 225.44 16.64 272.50 16.65 314.59 31.40 C 328.65 36.44 342.19 43.00 354.48 51.53 C 365.29 59.14 375.37 67.94 383.79 78.16 C 387.90 83.21 391.69 88.53 394.96 94.17 C 400.07 102.89 403.88 112.33 406.52 122.08 C 391.89 104.64 374.96 89.01 355.49 77.10 C 344.62 70.01 332.78 64.46 320.69 59.80 C 277.19 43.05 227.68 42.28 183.64 57.51 C 170.73 61.93 158.19 67.56 146.51 74.62 C 129.95 84.51 114.59 96.57 101.59 110.85 C 98.12 114.35 95.24 118.39 91.64 121.75 C 94.14 112.08 98.03 102.79 103.05 94.15 C 106.32 88.55 110.07 83.23 114.17 78.21 C 122.58 67.98 132.66 59.19 143.46 51.57 C 155.75 43.04 169.34 36.57 183.36 31.43 Z" />
<path fill="#2d5b87" d=" M 66.59 82.37 C 89.43 57.98 116.98 37.71 147.68 24.41 C 145.62 27.56 141.36 28.13 138.39 30.17 C 127.45 35.88 117.11 42.68 107.29 50.14 C 96.47 58.19 86.51 67.36 77.31 77.21 C 75.24 79.35 73.22 81.53 71.26 83.77 C 69.70 83.30 68.14 82.83 66.59 82.37 Z" />
<path fill="#2d5b87" d=" M 363.59 30.15 C 360.62 28.10 356.32 27.56 354.29 24.39 C 385.00 37.70 412.55 57.96 435.40 82.35 C 433.85 82.83 432.31 83.31 430.77 83.80 C 428.79 81.55 426.75 79.35 424.67 77.19 C 415.48 67.35 405.53 58.19 394.72 50.15 C 384.89 42.68 374.54 35.87 363.59 30.15 Z" />
<path fill="#042062" d=" M 107.29 50.14 C 117.11 42.68 127.45 35.88 138.39 30.17 C 144.46 31.76 150.77 30.78 156.96 30.98 C 165.76 31.13 174.58 30.58 183.36 31.43 C 169.34 36.57 155.75 43.04 143.46 51.57 C 137.00 50.73 130.48 51.16 124.00 51.01 C 118.42 50.86 112.73 51.77 107.29 50.14 Z" />
<path fill="#042062" d=" M 363.59 30.15 C 374.54 35.87 384.89 42.68 394.72 50.15 C 388.93 51.83 382.89 50.79 376.98 51.02 C 369.48 51.24 361.95 50.62 354.48 51.53 C 342.19 43.00 328.65 36.44 314.59 31.40 C 325.05 30.58 335.56 31.17 346.04 30.95 C 351.89 30.74 357.87 31.84 363.59 30.15 Z" />
<path fill="#7e858d" d=" M 183.64 57.51 C 227.68 42.28 277.19 43.05 320.69 59.80 C 315.67 60.80 310.67 58.89 305.61 59.30 C 288.53 57.93 271.37 58.50 254.26 57.81 C 239.77 57.84 225.27 57.36 210.77 57.80 C 201.75 58.56 192.63 58.59 183.64 57.51 Z" />
<path fill="#04256b" d=" M 77.31 77.21 C 86.51 67.36 96.47 58.19 107.29 50.14 C 112.73 51.77 118.42 50.86 124.00 51.01 C 130.48 51.16 137.00 50.73 143.46 51.57 C 132.66 59.19 122.58 67.98 114.17 78.21 C 104.45 77.81 94.72 77.97 85.00 78.04 C 82.41 78.07 79.84 77.70 77.31 77.21 Z" />
<path fill="#04256b" d=" M 394.72 50.15 C 405.53 58.19 415.48 67.35 424.67 77.19 C 419.21 78.56 413.57 77.85 408.02 77.92 C 399.94 77.98 391.86 77.80 383.79 78.16 C 375.37 67.94 365.29 59.14 354.48 51.53 C 361.95 50.62 369.48 51.24 376.98 51.02 C 382.89 50.79 388.93 51.83 394.72 50.15 Z" />
<path fill="#707982" d=" M 183.64 57.51 C 192.63 58.59 201.75 58.56 210.77 57.80 C 225.27 57.36 239.77 57.84 254.26 57.81 C 271.37 58.50 288.53 57.93 305.61 59.30 C 310.67 58.89 315.67 60.80 320.69 59.80 C 332.78 64.46 344.62 70.01 355.49 77.10 C 350.19 77.78 345.11 75.65 339.89 75.16 C 333.32 74.64 326.99 72.52 320.39 72.32 C 312.33 71.24 304.31 69.64 296.14 69.68 C 291.44 69.76 286.85 68.22 282.13 68.68 C 270.06 69.73 258.01 66.66 245.95 67.96 C 241.19 68.52 236.45 67.38 231.70 67.79 C 222.15 68.62 212.54 68.01 202.99 68.96 C 198.14 69.47 193.23 68.94 188.39 69.56 C 179.20 71.06 169.83 70.87 160.67 72.54 C 155.85 72.74 151.38 75.11 146.51 74.62 C 158.19 67.56 170.73 61.93 183.64 57.51 Z" />
<path fill="#606a74" d=" M 231.70 67.79 C 236.45 67.38 241.19 68.52 245.95 67.96 C 258.01 66.66 270.06 69.73 282.13 68.68 C 286.85 68.22 291.44 69.76 296.14 69.68 C 304.31 69.64 312.33 71.24 320.39 72.32 C 326.99 72.52 333.32 74.64 339.89 75.16 C 345.11 75.65 350.19 77.78 355.49 77.10 C 374.96 89.01 391.89 104.64 406.52 122.08 C 405.74 122.22 404.91 122.36 404.26 121.78 C 399.80 119.21 396.13 115.16 390.95 113.98 C 386.53 112.97 383.46 109.34 379.31 107.74 C 376.80 106.77 374.22 105.92 371.90 104.54 C 366.89 101.50 360.81 101.14 355.74 98.23 C 350.52 95.18 344.67 93.32 338.69 92.50 C 331.73 91.53 325.24 88.66 318.35 87.40 C 308.99 84.95 299.33 83.82 289.68 83.29 C 282.35 82.48 275.07 81.08 267.71 80.60 C 257.50 80.92 247.29 79.59 237.08 80.26 C 231.68 80.58 226.24 80.34 220.85 81.02 C 215.69 81.59 210.56 82.73 205.34 82.48 C 201.51 82.29 197.83 83.63 194.02 83.66 C 186.11 83.75 178.42 85.87 170.76 87.61 C 167.49 88.18 164.29 89.06 161.17 90.18 C 157.94 91.39 154.40 91.09 151.17 92.22 C 145.88 93.97 140.56 95.57 135.21 97.11 C 123.66 100.83 113.11 107.06 101.59 110.85 C 114.59 96.57 129.95 84.51 146.51 74.62 C 151.38 75.11 155.85 72.74 160.67 72.54 C 169.83 70.87 179.20 71.06 188.39 69.56 C 193.23 68.94 198.14 69.47 202.99 68.96 C 212.54 68.01 222.15 68.62 231.70 67.79 Z" />
<path fill="#042a74" d=" M 71.26 83.77 C 73.22 81.53 75.24 79.35 77.31 77.21 C 79.84 77.70 82.41 78.07 85.00 78.04 C 94.72 77.97 104.45 77.81 114.17 78.21 C 110.07 83.23 106.32 88.55 103.05 94.15 C 92.36 94.24 81.67 94.04 70.98 94.23 C 68.39 94.29 65.83 93.86 63.32 93.28 C 65.88 90.04 68.51 86.85 71.26 83.77 Z" />
<path fill="#042a74" d=" M 424.67 77.19 C 426.75 79.35 428.79 81.55 430.77 83.80 C 433.52 86.86 436.10 90.07 438.63 93.30 C 433.54 94.70 428.24 94.09 423.04 94.15 C 413.68 94.21 404.32 94.06 394.96 94.17 C 391.69 88.53 387.90 83.21 383.79 78.16 C 391.86 77.80 399.94 77.98 408.02 77.92 C 413.57 77.85 419.21 78.56 424.67 77.19 Z" />
<path fill="#505b67" d=" M 220.85 81.02 C 226.24 80.34 231.68 80.58 237.08 80.26 C 247.29 79.59 257.50 80.92 267.71 80.60 C 275.07 81.08 282.35 82.48 289.68 83.29 C 299.33 83.82 308.99 84.95 318.35 87.40 C 325.24 88.66 331.73 91.53 338.69 92.50 C 344.67 93.32 350.52 95.18 355.74 98.23 C 360.81 101.14 366.89 101.50 371.90 104.54 C 374.22 105.92 376.80 106.77 379.31 107.74 C 383.46 109.34 386.53 112.97 390.95 113.98 C 396.13 115.16 399.80 119.21 404.26 121.78 C 404.91 122.36 405.74 122.22 406.52 122.08 C 406.61 122.39 406.70 122.70 406.80 123.01 C 408.36 131.25 409.58 139.57 409.52 147.98 C 408.14 147.12 406.70 146.38 405.25 145.65 C 401.10 141.17 396.28 137.37 391.88 133.13 C 387.44 129.90 383.79 125.49 378.60 123.40 C 371.06 120.03 363.92 115.72 356.15 112.87 C 352.04 112.26 348.65 109.53 344.54 109.00 C 341.73 108.48 339.27 106.96 336.68 105.87 C 332.14 103.87 327.23 103.02 322.60 101.29 C 320.62 100.54 318.54 100.11 316.44 99.96 C 309.22 99.43 302.71 95.40 295.41 95.46 C 291.30 95.51 287.31 94.52 283.35 93.57 C 278.89 92.47 274.29 94.09 269.82 93.08 C 260.67 91.11 251.30 92.94 242.06 92.02 C 232.04 92.38 222.01 92.75 212.02 93.62 C 207.05 94.39 202.03 94.74 197.02 95.03 C 191.47 95.27 186.40 97.80 180.94 98.52 C 176.20 99.20 171.83 101.27 167.15 102.22 C 161.59 103.21 156.47 105.72 151.00 107.05 C 142.05 110.48 132.70 113.31 124.64 118.64 C 121.23 120.60 117.01 120.49 113.67 122.65 C 108.75 125.15 105.10 129.41 100.53 132.43 C 96.04 135.42 92.76 139.81 88.59 143.19 C 88.84 136.38 89.97 129.66 91.27 122.99 C 91.39 122.58 91.51 122.17 91.64 121.75 C 95.24 118.39 98.12 114.35 101.59 110.85 C 113.11 107.06 123.66 100.83 135.21 97.11 C 140.56 95.57 145.88 93.97 151.17 92.22 C 154.40 91.09 157.94 91.39 161.17 90.18 C 164.29 89.06 167.49 88.18 170.76 87.61 C 178.42 85.87 186.11 83.75 194.02 83.66 C 197.83 83.63 201.51 82.29 205.34 82.48 C 210.56 82.73 215.69 81.59 220.85 81.02 Z" />
<path fill="#34638d" d=" M 38.45 118.90 C 46.72 105.92 56.03 93.58 66.59 82.37 C 68.14 82.83 69.70 83.30 71.26 83.77 C 68.51 86.85 65.88 90.04 63.32 93.28 C 56.37 102.03 50.32 111.45 44.57 121.02 C 42.53 120.31 40.49 119.61 38.45 118.90 Z" />
<path fill="#34638d" d=" M 430.77 83.80 C 432.31 83.31 433.85 82.83 435.40 82.35 C 445.96 93.56 455.27 105.91 463.54 118.89 C 461.49 119.58 459.44 120.27 457.40 120.97 C 451.65 111.43 445.64 101.99 438.63 93.30 C 436.10 90.07 433.52 86.86 430.77 83.80 Z" />
<path fill="#434e5b" d=" M 212.02 93.62 C 222.01 92.75 232.04 92.38 242.06 92.02 C 251.30 92.94 260.67 91.11 269.82 93.08 C 274.29 94.09 278.89 92.47 283.35 93.57 C 287.31 94.52 291.30 95.51 295.41 95.46 C 302.71 95.40 309.22 99.43 316.44 99.96 C 318.54 100.11 320.62 100.54 322.60 101.29 C 327.23 103.02 332.14 103.87 336.68 105.87 C 339.27 106.96 341.73 108.48 344.54 109.00 C 348.65 109.53 352.04 112.26 356.15 112.87 C 363.92 115.72 371.06 120.03 378.60 123.40 C 383.79 125.49 387.44 129.90 391.88 133.13 C 396.28 137.37 401.10 141.17 405.25 145.65 C 406.70 146.38 408.14 147.12 409.52 147.98 C 409.43 155.82 408.45 163.66 406.45 171.25 C 405.92 173.29 405.36 175.33 404.77 177.37 C 398.90 173.76 396.64 166.86 391.51 162.53 C 388.14 159.53 385.72 155.60 382.01 152.95 C 376.60 146.56 369.36 142.07 362.28 137.76 C 360.04 136.41 359.05 133.97 358.15 131.66 C 356.84 131.38 355.54 131.09 354.25 130.80 C 352.20 126.16 346.82 125.54 342.94 123.11 C 339.47 121.05 336.04 118.74 331.98 118.03 C 325.90 116.96 320.89 112.90 314.83 111.80 C 309.47 110.93 304.51 108.50 299.11 107.80 C 288.79 106.92 278.82 103.41 268.37 103.47 C 245.93 101.70 223.16 101.76 201.02 106.15 C 192.10 108.68 182.86 109.87 173.85 111.98 C 171.31 113.08 169.26 115.28 166.34 115.47 C 160.98 116.27 155.95 118.46 151.45 121.44 C 147.04 124.26 141.68 125.24 137.55 128.56 C 134.98 130.02 135.78 133.76 133.38 135.39 C 130.32 137.76 126.44 138.88 123.56 141.52 C 121.71 143.34 120.54 145.77 118.54 147.47 C 115.27 150.18 112.82 153.73 109.53 156.41 C 103.77 161.09 98.52 166.52 94.71 172.92 C 94.22 173.89 92.90 173.20 92.07 173.42 C 91.94 172.88 91.68 171.81 91.55 171.27 C 89.23 162.11 88.16 152.63 88.59 143.19 C 92.76 139.81 96.04 135.42 100.53 132.43 C 105.10 129.41 108.75 125.15 113.67 122.65 C 117.01 120.49 121.23 120.60 124.64 118.64 C 132.70 113.31 142.05 110.48 151.00 107.05 C 156.47 105.72 161.59 103.21 167.15 102.22 C 171.83 101.27 176.20 99.20 180.94 98.52 C 186.40 97.80 191.47 95.27 197.02 95.03 C 202.03 94.74 207.05 94.39 212.02 93.62 Z" />
<path fill="#043181" d=" M 44.57 121.02 C 50.32 111.45 56.37 102.03 63.32 93.28 C 65.83 93.86 68.39 94.29 70.98 94.23 C 81.67 94.04 92.36 94.24 103.05 94.15 C 98.03 102.79 94.14 112.08 91.64 121.75 C 91.51 122.17 91.39 122.58 91.27 122.99 C 88.80 125.68 86.62 128.60 84.53 131.57 C 82.03 131.14 79.51 130.79 76.98 130.83 C 66.99 131.00 57.00 130.75 47.01 131.02 C 44.49 131.12 41.98 130.76 39.51 130.27 C 41.12 127.14 42.76 124.03 44.57 121.02 Z" />
<path fill="#043181" d=" M 438.63 93.30 C 445.64 101.99 451.65 111.43 457.40 120.97 C 459.23 124.02 460.88 127.17 462.51 130.32 C 458.72 131.11 454.85 131.05 451.00 130.92 C 440.99 130.93 430.97 130.93 420.96 130.85 C 418.45 130.84 415.97 131.21 413.51 131.62 C 411.41 128.64 409.22 125.73 406.80 123.01 C 406.70 122.70 406.61 122.39 406.52 122.08 C 403.88 112.33 400.07 102.89 394.96 94.17 C 404.32 94.06 413.68 94.21 423.04 94.15 C 428.24 94.09 433.54 94.70 438.63 93.30 Z" />
<path fill="#374350" d=" M 201.02 106.15 C 223.16 101.76 245.93 101.70 268.37 103.47 C 278.82 103.41 288.79 106.92 299.11 107.80 C 304.51 108.50 309.47 110.93 314.83 111.80 C 320.89 112.90 325.90 116.96 331.98 118.03 C 336.04 118.74 339.47 121.05 342.94 123.11 C 346.82 125.54 352.20 126.16 354.25 130.80 C 355.54 131.09 356.84 131.38 358.15 131.66 C 359.05 133.97 360.04 136.41 362.28 137.76 C 361.28 138.60 360.29 139.44 359.30 140.28 C 362.17 142.19 364.67 144.57 367.04 147.07 C 371.84 150.36 375.89 154.69 379.43 159.29 C 374.67 159.97 371.03 156.01 366.77 154.70 C 362.60 153.43 360.87 148.87 356.96 147.20 C 351.89 144.52 346.84 141.82 341.79 139.11 C 338.79 137.55 335.84 135.14 332.24 135.70 C 323.22 127.38 312.63 120.74 301.10 116.49 C 301.10 117.15 301.10 118.47 301.09 119.14 C 306.48 122.09 312.01 124.85 316.95 128.55 C 315.25 130.17 313.70 131.93 312.34 133.85 C 293.36 116.54 267.55 107.60 242.00 107.98 C 222.90 107.42 203.92 112.96 187.53 122.62 C 180.49 122.70 173.88 125.72 167.18 127.60 C 163.84 128.54 161.14 130.91 157.82 131.90 C 149.94 134.28 143.64 139.79 136.43 143.54 C 129.00 147.37 123.19 153.53 116.82 158.82 C 111.93 162.70 109.07 168.35 105.07 173.02 C 103.50 174.80 102.72 177.04 101.99 179.25 C 101.12 182.16 98.36 183.78 96.10 185.54 C 94.58 181.56 93.15 177.54 92.07 173.42 C 92.90 173.20 94.22 173.89 94.71 172.92 C 98.52 166.52 103.77 161.09 109.53 156.41 C 112.82 153.73 115.27 150.18 118.54 147.47 C 120.54 145.77 121.71 143.34 123.56 141.52 C 126.44 138.88 130.32 137.76 133.38 135.39 C 135.78 133.76 134.98 130.02 137.55 128.56 C 141.68 125.24 147.04 124.26 151.45 121.44 C 155.95 118.46 160.98 116.27 166.34 115.47 C 169.26 115.28 171.31 113.08 173.85 111.98 C 182.86 109.87 192.10 108.68 201.02 106.15 Z" />
<path fill="#ffffff" d=" M 187.53 122.62 C 203.92 112.96 222.90 107.42 242.00 107.98 C 267.55 107.60 293.36 116.54 312.34 133.85 C 321.12 141.64 328.67 150.88 334.31 161.19 C 339.92 171.31 343.50 182.48 345.33 193.89 C 347.17 206.16 347.13 218.68 345.46 230.97 C 343.89 242.53 340.62 253.88 335.56 264.40 C 332.46 270.72 328.85 276.81 324.57 282.41 C 321.55 286.29 318.22 289.94 314.53 293.19 C 311.21 296.02 307.57 298.50 303.61 300.34 C 294.60 304.49 283.63 305.68 274.37 301.70 C 265.23 297.48 261.89 286.80 261.41 277.47 C 257.04 285.27 251.78 292.83 244.47 298.15 C 235.74 304.82 224.10 306.42 213.54 304.11 C 208.35 303.00 203.55 300.56 199.36 297.35 C 196.94 295.47 194.78 293.28 192.85 290.91 C 190.38 287.85 188.28 284.50 186.49 281.00 C 184.70 277.38 183.32 273.57 182.20 269.70 C 180.93 265.11 180.16 260.39 179.65 255.66 C 179.21 250.52 178.93 245.34 179.18 240.18 C 179.30 235.72 179.67 231.27 180.32 226.85 C 181.18 220.92 182.54 215.07 184.47 209.39 C 186.99 201.74 190.58 194.46 195.02 187.75 C 199.22 181.52 204.11 175.72 209.81 170.80 C 219.25 162.76 231.46 157.71 243.96 157.97 C 253.84 157.61 263.22 161.31 272.14 165.13 C 277.86 167.63 284.83 167.46 289.85 163.48 C 290.44 163.91 291.62 164.77 292.21 165.21 C 291.90 167.77 291.60 170.34 291.32 172.90 C 290.54 179.79 289.74 186.67 288.95 193.55 C 288.16 200.44 287.38 207.33 286.58 214.22 C 285.95 219.39 285.43 224.57 284.80 229.75 C 284.25 234.30 283.77 238.86 283.23 243.41 C 282.81 247.09 282.52 250.78 282.18 254.46 C 281.82 258.29 281.47 262.12 281.14 265.95 C 280.55 272.80 280.84 280.86 286.46 285.72 C 289.50 288.45 293.83 287.87 297.50 287.06 C 291.66 281.82 289.20 273.79 289.84 266.10 C 290.05 263.16 290.35 260.23 290.66 257.31 C 291.09 253.36 291.60 249.43 292.02 245.48 C 292.45 241.28 292.99 237.10 293.46 232.90 C 294.14 226.49 294.91 220.08 295.62 213.67 C 296.30 207.53 297.03 201.39 297.71 195.24 C 298.42 189.06 299.09 182.88 299.84 176.70 C 300.13 173.99 300.42 171.27 300.77 168.57 C 301.40 169.35 302.03 170.14 302.65 170.94 C 303.45 171.97 304.24 173.01 305.04 174.05 C 303.58 186.88 302.13 199.71 300.68 212.54 C 300.19 216.86 299.69 221.19 299.20 225.52 C 298.69 230.16 298.14 234.80 297.63 239.44 C 297.18 243.29 296.75 247.15 296.32 251.01 C 295.94 254.29 295.55 257.57 295.20 260.86 C 294.03 269.39 295.03 278.89 300.88 285.63 C 307.13 281.86 312.44 276.59 316.32 270.42 C 318.29 267.31 320.08 264.07 321.56 260.70 C 323.15 257.02 324.61 253.28 325.78 249.45 C 327.24 244.48 328.44 239.44 329.24 234.33 C 330.01 229.37 330.55 224.37 330.74 219.35 C 331.82 202.09 328.98 184.30 320.83 168.91 C 314.73 157.13 305.93 146.82 295.56 138.60 C 272.02 119.39 237.68 116.23 210.10 128.10 C 199.46 132.74 189.80 139.57 181.61 147.78 C 168.20 160.99 157.72 177.22 151.41 194.97 C 146.03 209.87 143.62 225.75 143.50 241.57 C 143.28 256.76 145.52 272.04 150.60 286.38 C 154.14 296.71 159.58 306.31 166.04 315.08 C 172.47 323.71 180.26 331.31 189.04 337.53 C 195.92 342.44 203.65 346.12 211.69 348.72 C 231.64 354.86 253.62 354.00 273.26 347.09 C 279.23 344.95 285.04 342.37 290.56 339.23 C 297.79 335.44 303.93 329.97 310.92 325.83 C 313.06 325.13 315.54 324.05 317.67 325.42 C 319.54 327.98 318.25 331.33 316.89 333.81 C 313.87 338.17 309.67 341.51 305.39 344.55 C 301.79 347.08 298.11 349.50 294.28 351.65 C 290.74 353.54 287.17 355.38 283.48 356.94 C 279.58 358.58 275.61 360.03 271.57 361.25 C 268.13 362.26 264.65 363.12 261.14 363.81 C 249.26 366.19 237.05 366.51 225.00 365.59 C 220.42 365.12 215.86 364.38 211.37 363.37 C 204.89 361.91 198.60 359.70 192.53 357.02 C 188.42 355.27 184.55 353.05 180.73 350.75 C 177.57 348.81 174.53 346.67 171.58 344.42 C 169.22 342.58 166.93 340.64 164.69 338.66 C 161.74 336.00 158.97 333.15 156.24 330.28 C 152.78 326.58 149.61 322.63 146.60 318.56 C 144.07 315.13 141.79 311.52 139.62 307.86 C 137.46 304.16 135.48 300.36 133.72 296.45 C 129.82 287.81 127.05 278.69 125.10 269.43 C 123.19 259.96 122.41 250.31 122.22 240.67 C 122.22 235.82 122.49 230.97 122.87 226.14 C 124.20 209.46 128.37 192.94 135.80 177.91 C 147.17 154.96 165.67 135.80 187.53 122.62 Z" />
<path fill="#ffffff" d=" M 301.10 116.49 C 312.63 120.74 323.22 127.38 332.24 135.70 C 350.59 153.03 361.07 177.65 363.05 202.64 C 363.94 213.50 363.62 224.45 362.28 235.27 C 361.78 238.74 361.20 242.21 360.48 245.65 C 359.15 251.82 357.45 257.92 355.25 263.85 C 353.56 268.40 351.63 272.86 349.42 277.19 C 347.06 281.70 344.53 286.14 341.67 290.36 C 339.13 294.08 336.45 297.71 333.45 301.07 C 330.29 304.74 326.79 308.12 322.96 311.08 C 318.24 314.73 312.98 317.70 307.33 319.63 C 299.85 321.99 291.68 322.96 283.98 321.13 C 274.40 318.68 267.35 310.92 262.55 302.65 C 257.57 307.33 252.52 312.06 246.52 315.43 C 237.83 320.50 227.25 322.53 217.42 319.99 C 213.83 318.98 210.47 317.27 207.39 315.18 C 204.79 313.28 202.40 311.11 200.22 308.75 C 199.41 307.68 198.71 306.54 198.07 305.37 C 199.94 306.62 201.71 308.02 203.53 309.36 C 211.79 314.98 222.26 316.67 232.05 315.38 C 241.97 313.66 250.45 307.55 257.48 300.62 C 258.77 299.29 260.00 297.91 261.25 296.55 C 266.26 304.75 273.32 312.53 282.98 314.93 C 293.91 317.33 305.59 314.57 314.98 308.67 C 318.33 306.53 321.45 304.07 324.36 301.37 C 328.24 297.67 331.78 293.60 334.92 289.25 C 338.81 283.75 342.43 278.04 345.32 271.95 C 350.97 260.38 354.70 247.91 356.46 235.17 C 358.04 223.76 358.19 212.15 357.18 200.69 C 355.82 186.94 352.07 173.35 345.54 161.14 C 338.79 148.19 328.86 136.98 316.95 128.55 C 312.01 124.85 306.48 122.09 301.09 119.14 C 301.10 118.47 301.10 117.15 301.10 116.49 Z" />
<path fill="#3c6d96" d=" M 21.83 149.71 C 26.73 139.12 32.10 128.70 38.45 118.90 C 40.49 119.61 42.53 120.31 44.57 121.02 C 42.76 124.03 41.12 127.14 39.51 130.27 C 35.81 137.21 32.55 144.38 29.69 151.71 C 27.63 149.56 24.52 150.00 21.83 149.71 Z" />
<path fill="#3b6d95" d=" M 463.54 118.89 C 469.24 127.60 474.01 136.87 478.57 146.22 C 475.95 146.72 473.31 147.15 470.68 147.53 C 468.16 141.70 465.52 135.92 462.51 130.32 C 460.88 127.17 459.23 124.02 457.40 120.97 C 459.44 120.27 461.49 119.58 463.54 118.89 Z" />
<path fill="#252f40" d=" M 210.10 128.10 C 237.68 116.23 272.02 119.39 295.56 138.60 C 292.92 138.66 290.29 138.46 287.72 137.90 C 287.30 138.22 286.46 138.84 286.04 139.15 C 275.69 132.54 263.05 130.80 250.99 130.99 C 234.89 130.60 218.73 134.94 204.97 143.30 C 201.49 141.69 197.93 143.49 194.58 144.49 C 190.34 145.93 185.95 146.75 181.61 147.78 C 189.80 139.57 199.46 132.74 210.10 128.10 Z" />
<path fill="#29374b" d=" M 167.18 127.60 C 173.88 125.72 180.49 122.70 187.53 122.62 C 165.67 135.80 147.17 154.96 135.80 177.91 C 135.20 177.83 134.01 177.68 133.41 177.61 C 129.32 180.76 126.47 185.13 122.69 188.59 C 119.69 191.36 117.85 195.08 115.00 197.97 C 112.23 200.78 110.40 204.32 107.98 207.41 C 105.64 203.85 103.34 200.25 101.25 196.53 C 99.28 192.99 97.56 189.31 96.10 185.54 C 98.36 183.78 101.12 182.16 101.99 179.25 C 102.72 177.04 103.50 174.80 105.07 173.02 C 109.07 168.35 111.93 162.70 116.82 158.82 C 123.19 153.53 129.00 147.37 136.43 143.54 C 143.64 139.79 149.94 134.28 157.82 131.90 C 161.14 130.91 163.84 128.54 167.18 127.60 Z" />
<path fill="#000d1b" d=" M 84.53 131.57 C 86.62 128.60 88.80 125.68 91.27 122.99 C 89.97 129.66 88.84 136.38 88.59 143.19 C 88.16 152.63 89.23 162.11 91.55 171.27 C 90.55 171.99 89.55 172.70 88.55 173.41 C 88.85 172.53 89.14 171.66 89.44 170.78 C 81.40 173.97 72.52 172.12 64.34 174.71 C 63.68 173.80 63.02 172.89 62.37 171.99 C 64.80 166.26 67.33 160.57 70.19 155.04 C 74.53 146.96 79.15 139.01 84.53 131.57 Z" />
<path fill="#000d1c" d=" M 406.80 123.01 C 409.22 125.73 411.41 128.64 413.51 131.62 C 418.88 139.04 423.47 146.98 427.81 155.03 C 430.60 160.42 433.08 165.95 435.44 171.53 C 436.45 174.09 437.45 176.66 438.41 179.25 C 435.91 179.71 433.38 179.88 430.85 179.91 C 430.68 179.08 430.53 178.25 430.37 177.42 C 427.56 177.31 424.75 177.43 421.94 177.46 C 418.72 177.55 415.74 176.04 412.53 176.00 C 410.91 173.92 408.40 172.93 406.45 171.25 C 408.45 163.66 409.43 155.82 409.52 147.98 C 409.58 139.57 408.36 131.25 406.80 123.01 Z" />
<path fill="#273346" d=" M 312.34 133.85 C 313.70 131.93 315.25 130.17 316.95 128.55 C 328.86 136.98 338.79 148.19 345.54 161.14 C 343.11 160.09 340.90 158.63 338.84 156.98 C 337.29 158.35 335.78 159.75 334.31 161.19 C 328.67 150.88 321.12 141.64 312.34 133.85 Z" />
<path fill="#043990" d=" M 29.69 151.71 C 32.55 144.38 35.81 137.21 39.51 130.27 C 41.98 130.76 44.49 131.12 47.01 131.02 C 57.00 130.75 66.99 131.00 76.98 130.83 C 79.51 130.79 82.03 131.14 84.53 131.57 C 79.15 139.01 74.53 146.96 70.19 155.04 C 70.09 154.61 69.88 153.77 69.78 153.35 C 64.88 157.83 57.96 155.37 52.02 156.02 C 44.10 155.79 36.08 156.71 28.25 155.24 C 28.61 154.36 29.33 152.59 29.69 151.71 Z" />
<path fill="#043990" d=" M 462.51 130.32 C 465.52 135.92 468.16 141.70 470.68 147.53 C 471.75 150.07 472.74 152.65 473.75 155.23 C 467.90 156.64 461.88 155.75 455.94 155.97 C 448.60 156.05 441.24 156.21 433.90 155.92 C 431.71 155.95 430.00 154.47 428.22 153.41 C 428.12 153.82 427.91 154.63 427.81 155.03 C 423.47 146.98 418.88 139.04 413.51 131.62 C 415.97 131.21 418.45 130.84 420.96 130.85 C 430.97 130.93 440.99 130.93 451.00 130.92 C 454.85 131.05 458.72 131.11 462.51 130.32 Z" />
<path fill="#ffffff" d=" M 204.97 143.30 C 218.73 134.94 234.89 130.60 250.99 130.99 C 263.05 130.80 275.69 132.54 286.04 139.15 C 288.16 140.54 290.09 142.22 291.89 144.00 C 272.43 137.35 251.22 133.49 230.89 138.37 C 209.73 143.08 191.83 157.42 179.67 175.00 C 175.02 181.64 171.03 188.77 167.96 196.27 C 165.62 201.82 163.77 207.57 162.33 213.41 C 160.76 219.65 159.71 226.00 159.05 232.39 C 158.28 240.06 158.03 247.78 158.40 255.47 C 158.58 259.76 159.03 264.03 159.64 268.27 C 160.35 273.34 161.50 278.33 162.86 283.27 C 164.02 287.27 165.44 291.19 167.01 295.06 C 168.49 298.67 170.27 302.15 172.17 305.55 C 173.93 308.67 175.87 311.68 177.97 314.58 C 179.92 317.28 182.05 319.84 184.34 322.25 C 186.47 324.48 188.68 326.63 191.01 328.64 C 193.56 330.78 196.27 332.72 199.05 334.55 C 201.17 335.91 203.37 337.13 205.58 338.35 C 205.16 338.95 204.32 340.14 203.89 340.73 C 198.96 338.22 194.37 335.12 189.87 331.91 C 182.23 326.35 175.72 319.37 170.27 311.68 C 163.77 302.41 159.42 291.76 156.68 280.81 C 153.15 266.63 152.46 251.86 153.41 237.32 C 154.41 220.98 158.09 204.72 164.95 189.83 C 173.75 171.12 187.34 154.32 204.97 143.30 Z" />
<path fill="#24334e" d=" M 332.24 135.70 C 335.84 135.14 338.79 137.55 341.79 139.11 C 346.84 141.82 351.89 144.52 356.96 147.20 C 360.87 148.87 362.60 153.43 366.77 154.70 C 367.22 156.52 367.36 158.78 369.35 159.65 C 373.80 162.21 376.13 166.96 378.61 171.23 C 379.81 173.70 382.46 174.84 384.27 176.77 C 386.92 179.50 387.44 183.48 389.49 186.59 C 392.15 190.18 393.18 194.64 395.58 198.40 L 395.76 198.72 C 390.74 206.59 385.42 214.29 378.98 221.07 C 374.01 214.63 367.67 209.38 363.05 202.64 C 361.07 177.65 350.59 153.03 332.24 135.70 Z" />
<path fill="#16213d" d=" M 230.89 138.37 C 251.22 133.49 272.43 137.35 291.89 144.00 C 290.09 142.22 288.16 140.54 286.04 139.15 C 286.46 138.84 287.30 138.22 287.72 137.90 C 290.29 138.46 292.92 138.66 295.56 138.60 C 305.93 146.82 314.73 157.13 320.83 168.91 C 317.52 171.64 312.24 173.04 308.48 170.46 C 306.74 169.02 304.54 170.63 302.65 170.94 C 302.03 170.14 301.40 169.35 300.77 168.57 C 300.42 171.27 300.13 173.99 299.84 176.70 C 298.18 173.38 294.58 173.04 291.32 172.90 C 291.60 170.34 291.90 167.77 292.21 165.21 C 291.62 164.77 290.44 163.91 289.85 163.48 C 284.83 167.46 277.86 167.63 272.14 165.13 C 263.22 161.31 253.84 157.61 243.96 157.97 C 231.46 157.71 219.25 162.76 209.81 170.80 C 206.75 168.85 203.06 169.06 199.95 170.75 C 195.32 171.03 190.85 172.49 186.37 173.58 C 184.34 174.93 182.11 175.66 179.67 175.00 C 191.83 157.42 209.73 143.08 230.89 138.37 Z" />
<path fill="#314055" d=" M 362.28 137.76 C 369.36 142.07 376.60 146.56 382.01 152.95 C 385.72 155.60 388.14 159.53 391.51 162.53 C 396.64 166.86 398.90 173.76 404.77 177.37 C 402.61 184.73 399.40 191.75 395.58 198.40 C 393.18 194.64 392.15 190.18 389.49 186.59 C 387.44 183.48 386.92 179.50 384.27 176.77 C 382.46 174.84 379.81 173.70 378.61 171.23 C 376.13 166.96 373.80 162.21 369.35 159.65 C 367.36 158.78 367.22 156.52 366.77 154.70 C 371.03 156.01 374.67 159.97 379.43 159.29 C 375.89 154.69 371.84 150.36 367.04 147.07 C 364.67 144.57 362.17 142.19 359.30 140.28 C 360.29 139.44 361.28 138.60 362.28 137.76 Z" />
<path fill="#172340" d=" M 194.58 144.49 C 197.93 143.49 201.49 141.69 204.97 143.30 C 187.34 154.32 173.75 171.12 164.95 189.83 C 163.17 189.04 161.93 190.50 160.59 191.39 C 157.89 193.35 154.55 194.03 151.41 194.97 C 157.72 177.22 168.20 160.99 181.61 147.78 C 185.95 146.75 190.34 145.93 194.58 144.49 Z" />
<path fill="#42759c" d=" M 478.57 146.22 C 482.29 154.16 485.60 162.30 488.38 170.62 C 485.37 170.79 482.38 171.14 479.44 171.77 C 477.69 166.20 475.91 160.64 473.75 155.23 C 472.74 152.65 471.75 150.07 470.68 147.53 C 473.31 147.15 475.95 146.72 478.57 146.22 Z" />
<path fill="#43769d" d=" M 21.83 149.71 C 24.52 150.00 27.63 149.56 29.69 151.71 C 29.33 152.59 28.61 154.36 28.25 155.24 C 25.57 161.92 23.40 168.81 21.46 175.74 C 19.27 173.20 15.56 174.09 12.61 173.57 C 15.31 165.48 18.28 157.47 21.83 149.71 Z" />
<path fill="#04409d" d=" M 52.02 156.02 C 57.96 155.37 64.88 157.83 69.78 153.35 C 69.88 153.77 70.09 154.61 70.19 155.04 C 67.33 160.57 64.80 166.26 62.37 171.99 C 62.16 172.47 61.95 172.95 61.75 173.44 C 55.73 174.86 53.66 183.26 47.03 183.13 C 37.88 183.05 28.70 183.41 19.56 182.74 C 20.15 180.39 20.79 178.06 21.46 175.74 C 23.40 168.81 25.57 161.92 28.25 155.24 C 36.08 156.71 44.10 155.79 52.02 156.02 Z" />
<path fill="#04409d" d=" M 428.22 153.41 C 430.00 154.47 431.71 155.95 433.90 155.92 C 441.24 156.21 448.60 156.05 455.94 155.97 C 461.88 155.75 467.90 156.64 473.75 155.23 C 475.91 160.64 477.69 166.20 479.44 171.77 C 480.18 174.25 480.91 176.73 481.60 179.23 C 480.60 180.18 479.48 181.05 478.03 180.89 C 470.36 181.08 462.69 180.79 455.03 180.97 C 452.17 180.91 449.23 181.25 446.45 180.51 C 443.09 178.65 440.93 175.36 438.36 172.62 C 437.72 171.56 436.54 171.47 435.44 171.53 C 433.08 165.95 430.60 160.42 427.81 155.03 C 427.91 154.63 428.12 153.82 428.22 153.41 Z" />
<path fill="#1b2847" d=" M 334.31 161.19 C 335.78 159.75 337.29 158.35 338.84 156.98 C 340.90 158.63 343.11 160.09 345.54 161.14 C 352.07 173.35 355.82 186.94 357.18 200.69 C 352.72 199.35 349.61 195.61 345.33 193.89 C 343.50 182.48 339.92 171.31 334.31 161.19 Z" />
<path fill="#0b1645" d=" M 229.11 172.17 C 234.88 167.96 243.24 166.61 249.58 170.33 C 254.59 173.16 257.53 178.43 259.76 183.54 L 259.13 183.63 C 258.67 183.70 257.76 183.83 257.30 183.90 C 256.95 180.39 254.13 177.42 250.95 176.17 C 245.25 175.18 239.41 177.25 234.99 180.82 C 230.55 184.42 227.35 189.28 224.80 194.34 C 221.25 194.81 217.53 195.89 214.14 194.08 C 217.50 185.87 221.81 177.55 229.11 172.17 Z" />
<path fill="#0e1a44" d=" M 199.95 170.75 C 203.06 169.06 206.75 168.85 209.81 170.80 C 204.11 175.72 199.22 181.52 195.02 187.75 C 189.87 187.84 185.61 191.02 180.91 192.66 C 176.76 194.41 172.24 194.91 167.96 196.27 C 171.03 188.77 175.02 181.64 179.67 175.00 C 182.11 175.66 184.34 174.93 186.37 173.58 C 190.85 172.49 195.32 171.03 199.95 170.75 Z" />
<path fill="#0d194e" d=" M 302.65 170.94 C 304.54 170.63 306.74 169.02 308.48 170.46 C 312.24 173.04 317.52 171.64 320.83 168.91 C 328.98 184.30 331.82 202.09 330.74 219.35 C 328.82 218.65 326.95 217.87 325.08 217.06 C 322.89 215.96 320.37 216.50 318.05 215.99 C 315.60 215.34 313.53 213.61 310.95 213.40 C 307.52 213.10 304.09 212.90 300.68 212.54 C 302.13 199.71 303.58 186.88 305.04 174.05 C 304.24 173.01 303.45 171.97 302.65 170.94 Z" />
<path fill="#011127" d=" M 64.34 174.71 C 72.52 172.12 81.40 173.97 89.44 170.78 C 89.14 171.66 88.85 172.53 88.55 173.41 C 89.55 172.70 90.55 171.99 91.55 171.27 C 91.68 171.81 91.94 172.88 92.07 173.42 C 93.15 177.54 94.58 181.56 96.10 185.54 C 97.56 189.31 99.28 192.99 101.25 196.53 C 96.74 202.24 87.63 200.29 83.54 206.50 C 82.60 205.88 81.66 205.26 80.71 204.64 C 78.80 206.39 76.90 208.73 74.09 208.79 C 71.43 208.85 69.04 210.21 67.22 212.07 C 65.05 211.41 62.51 209.45 60.46 211.37 C 57.44 213.53 53.63 213.78 50.20 214.93 C 50.88 210.85 51.63 206.78 52.55 202.75 C 53.53 199.24 54.36 195.69 55.31 192.17 C 57.31 185.88 59.28 179.56 61.75 173.44 C 61.95 172.95 62.16 172.47 62.37 171.99 C 63.02 172.89 63.68 173.80 64.34 174.71 Z" />
<path fill="#01112a" d=" M 404.77 177.37 C 405.36 175.33 405.92 173.29 406.45 171.25 C 408.40 172.93 410.91 173.92 412.53 176.00 C 415.74 176.04 418.72 177.55 421.94 177.46 C 424.75 177.43 427.56 177.31 430.37 177.42 C 430.53 178.25 430.68 179.08 430.85 179.91 C 433.38 179.88 435.91 179.71 438.41 179.25 C 439.04 180.99 439.66 182.74 440.28 184.49 C 442.26 190.17 443.67 196.03 445.20 201.84 C 446.60 207.66 447.58 213.56 448.45 219.47 C 446.16 219.42 443.60 219.84 441.63 218.38 C 439.56 216.86 437.10 216.16 434.57 215.98 C 434.85 215.35 435.14 214.73 435.44 214.12 C 431.89 216.12 428.16 214.18 424.96 212.50 C 426.28 212.15 427.60 211.81 428.94 211.47 C 424.96 210.19 420.92 208.70 416.68 209.00 C 413.71 206.80 409.92 206.27 406.62 204.74 C 403.96 204.70 401.86 203.20 400.06 201.39 C 399.65 201.84 399.24 202.30 398.85 202.76 C 397.77 201.44 396.71 200.12 395.76 198.72 L 395.58 198.40 C 399.40 191.75 402.61 184.73 404.77 177.37 Z" />
<path fill="#0447a9" d=" M 435.44 171.53 C 436.54 171.47 437.72 171.56 438.36 172.62 C 440.93 175.36 443.09 178.65 446.45 180.51 C 449.23 181.25 452.17 180.91 455.03 180.97 C 462.69 180.79 470.36 181.08 478.03 180.89 C 479.48 181.05 480.60 180.18 481.60 179.23 C 482.74 183.82 483.80 188.42 484.77 193.05 C 485.46 196.42 486.07 199.80 486.64 203.20 C 484.89 205.75 481.61 205.06 478.96 205.19 C 472.28 204.94 465.60 205.36 458.93 205.04 C 455.97 205.06 454.12 202.44 452.53 200.33 C 449.26 195.56 446.09 190.73 442.85 185.94 C 442.38 184.91 441.22 184.78 440.28 184.49 C 439.66 182.74 439.04 180.99 438.41 179.25 C 437.45 176.66 436.45 174.09 435.44 171.53 Z" />
<path fill="#497ca3" d=" M 479.44 171.77 C 482.38 171.14 485.37 170.79 488.38 170.62 C 490.91 177.68 492.96 184.90 494.78 192.18 C 491.52 193.09 488.13 193.22 484.77 193.05 C 483.80 188.42 482.74 183.82 481.60 179.23 C 480.91 176.73 480.18 174.25 479.44 171.77 Z" />
<path fill="#044aad" d=" M 47.03 183.13 C 53.66 183.26 55.73 174.86 61.75 173.44 C 59.28 179.56 57.31 185.88 55.31 192.17 C 55.16 191.64 54.86 190.57 54.71 190.04 C 50.00 197.98 45.75 206.19 41.11 214.17 C 39.69 216.35 38.02 219.19 35.03 219.10 C 27.85 219.38 20.66 219.07 13.47 219.14 C 14.17 211.84 15.04 204.54 16.40 197.32 C 17.35 192.44 18.34 187.56 19.56 182.74 C 28.70 183.41 37.88 183.05 47.03 183.13 Z" />
<path fill="#0c1749" d=" M 291.32 172.90 C 294.58 173.04 298.18 173.38 299.84 176.70 C 299.09 182.88 298.42 189.06 297.71 195.24 C 294.81 194.55 291.90 193.97 288.95 193.55 C 289.74 186.67 290.54 179.79 291.32 172.90 Z" />
<path fill="#497da4" d=" M 6.27 196.22 C 8.05 188.59 10.06 180.99 12.61 173.57 C 15.56 174.09 19.27 173.20 21.46 175.74 C 20.79 178.06 20.15 180.39 19.56 182.74 C 18.34 187.56 17.35 192.44 16.40 197.32 C 13.00 197.21 9.61 196.87 6.27 196.22 Z" />
<path fill="#ffffff" d=" M 234.99 180.82 C 239.41 177.25 245.25 175.18 250.95 176.17 C 254.13 177.42 256.95 180.39 257.30 183.90 C 254.44 183.80 252.93 180.65 250.14 180.31 C 244.33 179.48 238.73 182.66 235.05 186.95 C 229.77 193.10 226.74 200.80 224.37 208.46 C 221.57 218.05 220.22 227.99 219.53 237.94 C 219.23 243.48 219.02 249.04 219.14 254.60 C 219.25 257.11 219.28 259.63 219.44 262.15 C 219.64 265.06 219.95 267.97 220.39 270.85 C 220.88 273.68 221.47 276.49 222.28 279.24 C 223.35 282.46 224.71 285.66 226.93 288.27 C 228.03 289.62 230.09 290.66 229.68 292.71 C 226.91 291.52 224.28 289.92 222.34 287.59 C 219.32 283.51 217.70 278.63 216.56 273.75 C 215.38 268.59 214.98 263.30 214.62 258.04 C 214.37 252.31 214.50 246.58 214.56 240.86 C 214.85 233.87 215.54 226.90 216.71 220.01 C 218.29 211.16 220.77 202.40 224.80 194.34 C 227.35 189.28 230.55 184.42 234.99 180.82 Z" />
<path fill="#1c2b4e" d=" M 133.41 177.61 C 134.01 177.68 135.20 177.83 135.80 177.91 C 128.37 192.94 124.20 209.46 122.87 226.14 C 119.77 220.95 115.11 216.99 111.44 212.24 C 110.22 210.68 109.07 209.06 107.98 207.41 C 110.40 204.32 112.23 200.78 115.00 197.97 C 117.85 195.08 119.69 191.36 122.69 188.59 C 126.47 185.13 129.32 180.76 133.41 177.61 Z" />
<path fill="#081452" d=" M 235.05 186.95 C 238.73 182.66 244.33 179.48 250.14 180.31 C 252.93 180.65 254.44 183.80 257.30 183.90 C 257.76 183.83 258.67 183.70 259.13 183.63 L 259.78 183.54 C 262.64 191.42 263.52 199.83 263.55 208.17 C 256.35 207.75 249.08 207.07 241.92 208.16 C 236.06 207.41 230.25 208.99 224.37 208.46 C 226.74 200.80 229.77 193.10 235.05 186.95 Z" />
<path fill="#0451b8" d=" M 440.28 184.49 C 441.22 184.78 442.38 184.91 442.85 185.94 C 446.09 190.73 449.26 195.56 452.53 200.33 C 454.12 202.44 455.97 205.06 458.93 205.04 C 465.60 205.36 472.28 204.94 478.96 205.19 C 481.61 205.06 484.89 205.75 486.64 203.20 C 487.30 207.82 487.88 212.46 488.38 217.10 C 489.28 226.34 489.59 235.63 489.39 244.91 C 481.66 244.64 473.90 245.11 466.18 244.70 C 461.73 239.52 460.08 232.59 457.60 226.36 C 455.95 222.08 454.95 217.35 451.67 213.94 C 449.43 209.95 448.85 204.92 445.20 201.84 C 443.67 196.03 442.26 190.17 440.28 184.49 Z" />
<path fill="#0b184e" d=" M 180.91 192.66 C 185.61 191.02 189.87 187.84 195.02 187.75 C 190.58 194.46 186.99 201.74 184.47 209.39 C 176.80 208.05 169.72 212.22 162.33 213.41 C 163.77 207.57 165.62 201.82 167.96 196.27 C 172.24 194.91 176.76 194.41 180.91 192.66 Z" />
<path fill="#0e1c52" d=" M 160.59 191.39 C 161.93 190.50 163.17 189.04 164.95 189.83 C 158.09 204.72 154.41 220.98 153.41 237.32 C 151.84 237.70 150.22 237.88 148.66 238.32 C 146.90 239.34 145.29 240.60 143.50 241.57 C 143.62 225.75 146.03 209.87 151.41 194.97 C 154.55 194.03 157.89 193.35 160.59 191.39 Z" />
<path fill="#0457c1" d=" M 41.11 214.17 C 45.75 206.19 50.00 197.98 54.71 190.04 C 54.86 190.57 55.16 191.64 55.31 192.17 C 54.36 195.69 53.53 199.24 52.55 202.75 C 49.29 206.70 48.40 211.85 46.92 216.61 C 43.65 223.93 41.26 231.62 39.27 239.37 C 37.33 247.56 34.88 255.65 33.71 264.01 C 33.07 267.26 32.82 270.98 30.33 273.45 C 25.20 274.20 19.99 273.58 14.83 273.81 C 14.26 269.56 13.73 265.31 13.38 261.04 C 12.89 254.72 12.52 248.39 12.51 242.05 C 12.50 235.36 12.68 228.67 13.20 222.01 C 13.28 221.05 13.37 220.09 13.47 219.14 C 20.66 219.07 27.85 219.38 35.03 219.10 C 38.02 219.19 39.69 216.35 41.11 214.17 Z" />
<path fill="#4f85aa" d=" M 494.78 192.18 C 496.79 200.35 498.30 208.63 499.50 216.96 C 495.79 217.05 492.08 217.09 488.38 217.10 C 487.88 212.46 487.30 207.82 486.64 203.20 C 486.07 199.80 485.46 196.42 484.77 193.05 C 488.13 193.22 491.52 193.09 494.78 192.18 Z" />
<path fill="#091555" d=" M 288.95 193.55 C 291.90 193.97 294.81 194.55 297.71 195.24 C 297.03 201.39 296.30 207.53 295.62 213.67 C 292.44 212.92 289.76 215.58 286.58 214.22 C 287.38 207.33 288.16 200.44 288.95 193.55 Z" />
<path fill="#091557" d=" M 207.32 221.22 C 208.67 211.98 210.73 202.80 214.14 194.08 C 217.53 195.89 221.25 194.81 224.80 194.34 C 220.77 202.40 218.29 211.16 216.71 220.01 C 213.50 219.09 210.35 220.32 207.32 221.22 Z" />
<path fill="#111f55" d=" M 345.33 193.89 C 349.61 195.61 352.72 199.35 357.18 200.69 C 358.19 212.15 358.04 223.76 356.46 235.17 C 352.69 234.05 349.02 232.62 345.46 230.97 C 347.13 218.68 347.17 206.16 345.33 193.89 Z" />
<path fill="#5086ab" d=" M 2.34 218.02 C 3.38 210.71 4.62 203.42 6.27 196.22 C 9.61 196.87 13.00 197.21 16.40 197.32 C 15.04 204.54 14.17 211.84 13.47 219.14 C 13.37 220.09 13.28 221.05 13.20 222.01 C 13.00 221.58 12.58 220.72 12.37 220.29 C 9.64 220.03 6.89 219.98 4.14 219.89 C 3.69 219.42 2.79 218.49 2.34 218.02 Z" />
<path fill="#011435" d=" M 83.54 206.50 C 87.63 200.29 96.74 202.24 101.25 196.53 C 103.34 200.25 105.64 203.85 107.98 207.41 C 109.07 209.06 110.22 210.68 111.44 212.24 C 110.39 217.23 104.73 217.14 101.32 219.67 C 96.74 221.63 93.09 225.08 88.51 227.07 C 88.03 226.89 87.55 226.72 87.07 226.55 C 83.70 229.24 79.93 231.43 75.89 232.95 C 74.34 233.47 73.12 234.57 71.90 235.60 C 71.30 235.22 70.71 234.84 70.12 234.47 C 68.50 236.03 66.65 237.32 64.67 238.39 C 63.99 237.75 63.30 237.12 62.63 236.49 C 61.45 238.43 60.20 240.33 58.89 242.19 C 57.44 242.18 55.97 241.98 54.54 242.29 C 53.07 243.04 51.99 244.35 50.76 245.41 C 49.68 245.36 48.60 245.32 47.52 245.27 C 47.63 238.40 48.00 231.52 48.82 224.69 C 49.33 221.44 49.67 218.18 50.20 214.93 C 53.63 213.78 57.44 213.53 60.46 211.37 C 62.51 209.45 65.05 211.41 67.22 212.07 C 69.04 210.21 71.43 208.85 74.09 208.79 C 76.90 208.73 78.80 206.39 80.71 204.64 C 81.66 205.26 82.60 205.88 83.54 206.50 Z" />
<path fill="#02153b" d=" M 378.98 221.07 C 385.42 214.29 390.74 206.59 395.76 198.72 C 396.71 200.12 397.77 201.44 398.85 202.76 C 399.24 202.30 399.65 201.84 400.06 201.39 C 401.86 203.20 403.96 204.70 406.62 204.74 C 409.92 206.27 413.71 206.80 416.68 209.00 C 420.92 208.70 424.96 210.19 428.94 211.47 C 427.60 211.81 426.28 212.15 424.96 212.50 C 428.16 214.18 431.89 216.12 435.44 214.12 C 435.14 214.73 434.85 215.35 434.57 215.98 C 437.10 216.16 439.56 216.86 441.63 218.38 C 443.60 219.84 446.16 219.42 448.45 219.47 C 448.58 220.30 448.71 221.13 448.83 221.96 C 449.91 229.40 450.10 236.91 450.55 244.40 C 450.60 251.41 450.39 258.44 449.77 265.43 C 445.87 264.95 442.59 262.94 439.76 260.33 C 437.98 258.50 435.52 259.03 433.53 260.09 C 433.80 259.40 434.07 258.72 434.35 258.04 C 431.55 256.72 428.89 254.93 427.87 251.86 C 426.14 251.44 424.37 251.13 422.75 250.38 C 420.37 248.43 418.93 244.46 415.24 245.00 C 413.63 240.48 408.21 239.95 404.96 237.05 C 399.91 232.71 393.31 230.93 388.03 226.95 C 385.26 224.89 382.14 223.42 379.32 221.45 L 378.98 221.07 Z" />
<path fill="#0466d5" d=" M 445.20 201.84 C 448.85 204.92 449.43 209.95 451.67 213.94 C 455.01 225.82 459.45 237.39 462.11 249.48 C 461.08 254.54 461.35 259.78 462.51 264.80 C 464.34 271.69 464.28 278.93 466.43 285.75 C 472.66 286.40 478.93 285.91 485.18 285.92 C 484.28 290.62 483.21 295.29 482.03 299.94 C 480.57 305.66 478.85 311.32 476.98 316.92 C 472.13 317.10 467.27 317.29 462.44 316.73 C 459.03 310.20 461.65 302.90 461.00 295.97 C 460.85 292.78 460.16 289.66 459.50 286.55 C 459.99 280.69 459.56 274.81 458.90 268.98 C 458.27 252.29 454.53 235.86 449.48 219.99 C 449.32 220.48 449.00 221.47 448.83 221.96 C 448.71 221.13 448.58 220.30 448.45 219.47 C 447.58 213.56 446.60 207.66 445.20 201.84 Z" />
<path fill="#046edb" d=" M 46.92 216.61 C 48.40 211.85 49.29 206.70 52.55 202.75 C 51.63 206.78 50.88 210.85 50.20 214.93 C 49.67 218.18 49.33 221.44 48.82 224.69 C 45.95 232.24 44.72 240.27 43.36 248.19 C 42.44 254.42 41.24 260.65 41.35 266.97 C 41.36 278.65 40.69 290.40 42.45 301.99 C 43.25 310.27 44.51 318.51 46.21 326.66 C 44.87 326.45 43.54 326.25 42.20 326.04 C 41.28 328.35 42.32 332.58 38.93 332.89 C 36.26 333.40 33.55 332.81 30.90 332.47 C 29.65 329.28 28.38 326.11 27.16 322.92 C 24.78 316.45 22.61 309.89 20.83 303.23 C 25.15 303.21 29.48 303.16 33.79 302.83 C 35.44 285.53 35.40 268.02 38.93 250.93 C 40.44 241.39 43.06 232.08 46.00 222.90 C 46.66 220.87 46.74 218.72 46.92 216.61 Z" />
<path fill="#162456" d=" M 363.05 202.64 C 367.67 209.38 374.01 214.63 378.98 221.07 L 379.32 221.45 C 373.68 226.08 369.09 232.25 362.28 235.27 C 363.62 224.45 363.94 213.50 363.05 202.64 Z" />
<path fill="#0b1c64" d=" M 224.37 208.46 C 230.25 208.99 236.06 207.41 241.92 208.16 C 249.08 207.07 256.35 207.75 263.55 208.17 C 262.70 217.76 261.57 227.32 260.63 236.90 C 253.22 236.27 245.79 236.40 238.36 236.46 C 232.04 236.06 225.81 237.44 219.53 237.94 C 220.22 227.99 221.57 218.05 224.37 208.46 Z" />
<path fill="#0b1958" d=" M 162.33 213.41 C 169.72 212.22 176.80 208.05 184.47 209.39 C 182.54 215.07 181.18 220.92 180.32 226.85 C 179.95 226.57 179.22 226.01 178.86 225.72 C 178.35 226.19 177.85 226.65 177.34 227.12 C 176.43 226.58 175.52 226.03 174.62 225.50 C 174.36 225.56 173.86 225.70 173.60 225.76 C 173.96 226.73 174.33 227.71 174.70 228.69 C 171.76 228.45 168.81 228.44 165.88 228.76 C 166.85 229.36 167.83 229.97 168.81 230.58 C 165.56 231.19 162.31 231.81 159.05 232.39 C 159.71 226.00 160.76 219.65 162.33 213.41 Z" />
<path fill="#031846" d=" M 111.44 212.24 C 115.11 216.99 119.77 220.95 122.87 226.14 C 122.49 230.97 122.22 235.82 122.22 240.67 C 119.46 241.43 116.62 242.44 114.82 244.81 C 111.22 249.35 105.71 251.59 101.62 255.58 C 98.72 258.35 95.45 260.74 92.78 263.76 C 91.08 265.68 89.05 267.28 86.80 268.51 C 86.36 269.84 85.92 271.17 85.49 272.51 C 81.20 274.71 77.59 277.93 73.49 280.44 C 74.21 280.85 74.94 281.27 75.66 281.70 C 75.48 281.87 75.12 282.20 74.95 282.37 C 73.35 282.17 71.72 281.53 70.11 281.94 C 66.36 284.59 63.80 288.51 60.58 291.71 C 58.21 293.22 55.15 292.42 52.63 293.63 C 50.43 284.10 49.09 274.39 48.10 264.67 C 47.79 258.21 47.31 251.75 47.52 245.27 C 48.60 245.32 49.68 245.36 50.76 245.41 C 51.99 244.35 53.07 243.04 54.54 242.29 C 55.97 241.98 57.44 242.18 58.89 242.19 C 60.20 240.33 61.45 238.43 62.63 236.49 C 63.30 237.12 63.99 237.75 64.67 238.39 C 66.65 237.32 68.50 236.03 70.12 234.47 C 70.71 234.84 71.30 235.22 71.90 235.60 C 73.12 234.57 74.34 233.47 75.89 232.95 C 79.93 231.43 83.70 229.24 87.07 226.55 C 87.55 226.72 88.03 226.89 88.51 227.07 C 93.09 225.08 96.74 221.63 101.32 219.67 C 104.73 217.14 110.39 217.23 111.44 212.24 Z" />
<path fill="#0b195e" d=" M 300.68 212.54 C 304.09 212.90 307.52 213.10 310.95 213.40 C 313.53 213.61 315.60 215.34 318.05 215.99 C 320.37 216.50 322.89 215.96 325.08 217.06 C 326.95 217.87 328.82 218.65 330.74 219.35 C 330.55 224.37 330.01 229.37 329.24 234.33 C 325.88 233.78 321.95 233.64 319.97 230.40 C 319.25 231.18 318.54 231.97 317.83 232.76 C 315.69 231.27 313.88 229.03 311.15 228.67 C 307.10 227.88 303.14 226.75 299.20 225.52 C 299.69 221.19 300.19 216.86 300.68 212.54 Z" />
<path fill="#0b1a63" d=" M 286.58 214.22 C 289.76 215.58 292.44 212.92 295.62 213.67 C 294.91 220.08 294.14 226.49 293.46 232.90 C 291.57 229.89 287.87 230.18 284.80 229.75 C 285.43 224.57 285.95 219.39 286.58 214.22 Z" />
<path fill="#0459c6" d=" M 451.67 213.94 C 454.95 217.35 455.95 222.08 457.60 226.36 C 460.08 232.59 461.73 239.52 466.18 244.70 C 473.90 245.11 481.66 244.64 489.39 244.91 C 489.32 247.69 489.30 250.48 489.24 253.27 C 488.90 256.78 488.68 260.31 488.38 263.83 C 488.36 264.10 488.31 264.65 488.28 264.92 C 487.92 264.48 487.19 263.58 486.83 263.13 C 480.05 262.57 473.24 263.50 466.47 262.72 C 465.25 258.23 463.99 253.74 462.11 249.48 C 459.45 237.39 455.01 225.82 451.67 213.94 Z" />
<path fill="#0462d2" d=" M 39.27 239.37 C 41.26 231.62 43.65 223.93 46.92 216.61 C 46.74 218.72 46.66 220.87 46.00 222.90 C 43.06 232.08 40.44 241.39 38.93 250.93 C 35.40 268.02 35.44 285.53 33.79 302.83 C 29.48 303.16 25.15 303.21 20.83 303.23 C 20.55 302.16 20.27 301.10 20.00 300.04 C 18.38 293.63 16.96 287.17 15.88 280.65 C 15.49 278.37 15.15 276.09 14.83 273.81 C 19.99 273.58 25.20 274.20 30.33 273.45 C 32.82 270.98 33.07 267.26 33.71 264.01 C 34.88 255.65 37.33 247.56 39.27 239.37 Z" />
<path fill="#578db2" d=" M 488.38 217.10 C 492.08 217.09 495.79 217.05 499.50 216.96 C 500.89 225.46 501.03 234.09 501.84 242.65 C 498.04 242.73 494.24 242.88 490.46 243.22 C 490.35 246.60 489.92 249.95 489.24 253.27 C 489.30 250.48 489.32 247.69 489.39 244.91 C 489.59 235.63 489.28 226.34 488.38 217.10 Z" />
<path fill="#578eb2" d=" M 0.27 242.03 C 0.87 234.01 1.14 225.98 2.34 218.02 C 2.79 218.49 3.69 219.42 4.14 219.89 C 6.89 219.98 9.64 220.03 12.37 220.29 C 12.58 220.72 13.00 221.58 13.20 222.01 C 12.68 228.67 12.50 235.36 12.51 242.05 C 8.43 242.07 4.35 242.07 0.27 242.03 Z" />
<path fill="#0d1f68" d=" M 207.32 221.22 C 210.35 220.32 213.50 219.09 216.71 220.01 C 215.54 226.90 214.85 233.87 214.56 240.86 C 211.60 241.29 208.64 241.76 205.69 242.25 C 205.78 235.21 206.43 228.20 207.32 221.22 Z" />
<path fill="#0485e4" d=" M 449.48 219.99 C 454.53 235.86 458.27 252.29 458.90 268.98 C 459.56 274.81 459.99 280.69 459.50 286.55 C 459.00 289.00 458.60 291.47 458.60 293.97 C 458.56 301.42 457.02 308.74 456.12 316.12 C 455.59 320.74 454.61 325.30 453.15 329.72 C 447.94 333.28 449.13 340.75 444.91 345.16 C 444.88 343.85 444.83 342.54 444.77 341.23 C 443.85 342.19 442.93 343.15 442.06 344.15 C 442.92 340.16 444.17 336.28 445.44 332.41 C 448.38 322.08 450.86 311.60 452.28 300.94 C 454.00 287.99 455.21 274.83 453.58 261.79 C 452.80 255.97 453.42 249.72 450.55 244.40 C 450.10 236.91 449.91 229.40 448.83 221.96 C 449.00 221.47 449.32 220.48 449.48 219.99 Z" />
<path fill="#041751" d=" M 362.28 235.27 C 369.09 232.25 373.68 226.08 379.32 221.45 C 382.14 223.42 385.26 224.89 388.03 226.95 C 393.31 230.93 399.91 232.71 404.96 237.05 C 408.21 239.95 413.63 240.48 415.24 245.00 C 418.93 244.46 420.37 248.43 422.75 250.38 C 424.37 251.13 426.14 251.44 427.87 251.86 C 428.89 254.93 431.55 256.72 434.35 258.04 C 434.07 258.72 433.80 259.40 433.53 260.09 C 435.52 259.03 437.98 258.50 439.76 260.33 C 442.59 262.94 445.87 264.95 449.77 265.43 C 449.64 266.97 449.51 268.52 449.40 270.08 C 447.21 289.13 442.52 307.90 435.10 325.60 C 432.95 322.66 431.35 319.40 429.76 316.15 C 427.85 312.33 423.60 310.40 421.76 306.56 C 419.57 302.15 415.38 299.18 413.17 294.78 C 411.01 290.53 407.21 287.44 405.07 283.19 C 404.09 280.51 400.83 280.54 398.59 279.53 C 397.93 277.06 396.92 274.59 394.44 273.45 C 390.16 271.15 388.41 266.18 384.27 263.74 C 378.93 260.27 374.93 254.99 369.18 252.10 C 368.24 252.05 367.30 252.21 366.36 252.20 C 364.22 250.19 362.52 247.75 360.48 245.65 C 361.20 242.21 361.78 238.74 362.28 235.27 Z" />
<path fill="#0497ed" d=" M 43.36 248.19 C 44.72 240.27 45.95 232.24 48.82 224.69 C 48.00 231.52 47.63 238.40 47.52 245.27 C 47.31 251.75 47.79 258.21 48.10 264.67 C 47.04 271.41 47.61 278.25 48.03 285.02 C 49.24 299.05 51.78 313.03 56.32 326.38 C 55.64 327.27 54.96 328.17 54.29 329.07 C 56.35 338.42 60.82 347.01 62.99 356.31 C 59.44 351.76 57.83 346.17 55.39 341.02 C 53.41 344.23 56.77 348.10 54.14 350.94 C 50.82 343.09 48.32 334.90 46.21 326.66 C 44.51 318.51 43.25 310.27 42.45 301.99 C 40.69 290.40 41.36 278.65 41.35 266.97 C 41.24 260.65 42.44 254.42 43.36 248.19 Z" />
<path fill="#0c1d64" d=" M 173.60 225.76 C 173.86 225.70 174.36 225.56 174.62 225.50 C 175.52 226.03 176.43 226.58 177.34 227.12 C 177.85 226.65 178.35 226.19 178.86 225.72 C 179.22 226.01 179.95 226.57 180.32 226.85 C 179.67 231.27 179.30 235.72 179.18 240.18 C 175.50 241.80 171.72 243.23 168.32 245.41 C 165.94 246.93 162.98 246.65 160.35 247.45 C 158.92 249.85 158.91 252.79 158.40 255.47 C 158.03 247.78 158.28 240.06 159.05 232.39 C 162.31 231.81 165.56 231.19 168.81 230.58 C 167.83 229.97 166.85 229.36 165.88 228.76 C 168.81 228.44 171.76 228.45 174.70 228.69 C 174.33 227.71 173.96 226.73 173.60 225.76 Z" />
<path fill="#0e2068" d=" M 297.63 239.44 C 298.14 234.80 298.69 230.16 299.20 225.52 C 303.14 226.75 307.10 227.88 311.15 228.67 C 313.88 229.03 315.69 231.27 317.83 232.76 C 318.54 231.97 319.25 231.18 319.97 230.40 C 321.95 233.64 325.88 233.78 329.24 234.33 C 328.44 239.44 327.24 244.48 325.78 249.45 C 321.03 246.86 316.02 244.78 310.75 243.51 C 306.26 242.50 302.20 240.10 297.63 239.44 Z" />
<path fill="#0f246d" d=" M 284.80 229.75 C 287.87 230.18 291.57 229.89 293.46 232.90 C 292.99 237.10 292.45 241.28 292.02 245.48 C 289.02 245.13 286.08 244.39 283.23 243.41 C 283.77 238.86 284.25 234.30 284.80 229.75 Z" />
<path fill="#0e1f65" d=" M 345.46 230.97 C 349.02 232.62 352.69 234.05 356.46 235.17 C 354.70 247.91 350.97 260.38 345.32 271.95 C 342.51 268.90 339.16 266.43 335.56 264.40 C 340.62 253.88 343.89 242.53 345.46 230.97 Z" />
<path fill="#142e77" d=" M 219.53 237.94 C 225.81 237.44 232.04 236.06 238.36 236.46 C 245.79 236.40 253.22 236.27 260.63 236.90 C 260.19 241.89 259.52 246.86 258.66 251.80 C 250.23 250.81 241.65 250.88 233.27 252.19 C 228.46 252.30 223.76 253.33 219.14 254.60 C 219.02 249.04 219.23 243.48 219.53 237.94 Z" />
<path fill="#0d2067" d=" M 148.66 238.32 C 150.22 237.88 151.84 237.70 153.41 237.32 C 152.46 251.86 153.15 266.63 156.68 280.81 C 154.81 282.83 152.78 284.69 150.60 286.38 C 145.52 272.04 143.28 256.76 143.50 241.57 C 145.29 240.60 146.90 239.34 148.66 238.32 Z" />
<path fill="#122971" d=" M 297.63 239.44 C 302.20 240.10 306.26 242.50 310.75 243.51 C 316.02 244.78 321.03 246.86 325.78 249.45 C 324.61 253.28 323.15 257.02 321.56 260.70 C 317.13 258.86 313.10 256.18 308.62 254.46 C 304.50 253.38 300.24 252.76 296.32 251.01 C 296.75 247.15 297.18 243.29 297.63 239.44 Z" />
<path fill="#10256d" d=" M 168.32 245.41 C 171.72 243.23 175.50 241.80 179.18 240.18 C 178.93 245.34 179.21 250.52 179.65 255.66 C 173.55 260.74 166.46 264.29 159.64 268.27 C 159.03 264.03 158.58 259.76 158.40 255.47 C 158.91 252.79 158.92 249.85 160.35 247.45 C 162.98 246.65 165.94 246.93 168.32 245.41 Z" />
<path fill="#061c59" d=" M 114.82 244.81 C 116.62 242.44 119.46 241.43 122.22 240.67 C 122.41 250.31 123.19 259.96 125.10 269.43 C 119.25 275.14 112.80 280.23 107.66 286.64 C 102.02 294.28 95.98 301.61 90.06 309.03 C 89.00 310.50 88.56 312.29 87.72 313.87 C 86.46 315.50 84.61 316.57 83.39 318.24 C 82.08 320.41 81.55 322.96 80.25 325.13 C 75.77 326.80 73.11 331.26 71.42 335.50 C 70.24 335.88 69.05 336.25 67.86 336.63 C 61.28 322.89 56.00 308.50 52.63 293.63 C 55.15 292.42 58.21 293.22 60.58 291.71 C 63.80 288.51 66.36 284.59 70.11 281.94 C 71.72 281.53 73.35 282.17 74.95 282.37 C 75.12 282.20 75.48 281.87 75.66 281.70 C 74.94 281.27 74.21 280.85 73.49 280.44 C 77.59 277.93 81.20 274.71 85.49 272.51 C 85.92 271.17 86.36 269.84 86.80 268.51 C 89.05 267.28 91.08 265.68 92.78 263.76 C 95.45 260.74 98.72 258.35 101.62 255.58 C 105.71 251.59 111.22 249.35 114.82 244.81 Z" />
<path fill="#163078" d=" M 205.69 242.25 C 208.64 241.76 211.60 241.29 214.56 240.86 C 214.50 246.58 214.37 252.31 214.62 258.04 C 211.69 258.82 208.80 259.76 206.00 260.93 C 205.69 254.71 205.14 248.46 205.69 242.25 Z" />
<path fill="#5d95b9" d=" M 0.27 242.03 C 4.35 242.07 8.43 242.07 12.51 242.05 C 12.52 248.39 12.89 254.72 13.38 261.04 C 9.04 260.98 4.70 260.93 0.35 260.93 C 0.26 260.17 0.09 258.66 0.00 257.90 L 0.00 244.46 C 0.07 243.85 0.20 242.63 0.27 242.03 Z" />
<path fill="#5e96b9" d=" M 490.46 243.22 C 494.24 242.88 498.04 242.73 501.84 242.65 L 502.00 243.86 L 502.00 258.39 C 501.76 260.26 501.51 262.14 501.39 264.03 C 497.05 264.00 492.71 263.93 488.38 263.83 C 488.68 260.31 488.90 256.78 489.24 253.27 C 489.92 249.95 490.35 246.60 490.46 243.22 Z" />
<path fill="#152f78" d=" M 282.18 254.46 C 282.52 250.78 282.81 247.09 283.23 243.41 C 286.08 244.39 289.02 245.13 292.02 245.48 C 291.60 249.43 291.09 253.36 290.66 257.31 C 287.82 256.39 284.99 255.46 282.18 254.46 Z" />
<path fill="#08a3f3" d=" M 450.55 244.40 C 453.42 249.72 452.80 255.97 453.58 261.79 C 455.21 274.83 454.00 287.99 452.28 300.94 C 450.86 311.60 448.38 322.08 445.44 332.41 C 444.17 336.28 442.92 340.16 442.06 344.15 C 438.21 353.44 433.88 362.51 429.53 371.58 C 428.56 373.48 427.35 375.25 426.11 376.98 C 423.85 379.18 421.41 381.18 419.13 383.36 C 420.51 379.86 422.21 376.49 424.38 373.41 C 427.87 368.45 429.58 362.57 431.48 356.88 C 430.90 356.05 430.33 355.22 429.76 354.40 C 442.55 330.32 449.60 303.24 450.38 276.00 C 450.44 273.98 449.81 272.03 449.40 270.08 C 449.51 268.52 449.64 266.97 449.77 265.43 C 450.39 258.44 450.60 251.41 450.55 244.40 Z" />
<path fill="#091d62" d=" M 360.48 245.65 C 362.52 247.75 364.22 250.19 366.36 252.20 C 367.30 252.21 368.24 252.05 369.18 252.10 C 374.93 254.99 378.93 260.27 384.27 263.74 C 388.41 266.18 390.16 271.15 394.44 273.45 C 396.92 274.59 397.93 277.06 398.59 279.53 C 400.83 280.54 404.09 280.51 405.07 283.19 C 407.21 287.44 411.01 290.53 413.17 294.78 C 415.38 299.18 419.57 302.15 421.76 306.56 C 423.60 310.40 427.85 312.33 429.76 316.15 C 431.35 319.40 432.95 322.66 435.10 325.60 C 431.13 335.34 426.26 344.69 420.82 353.69 C 418.75 352.32 417.51 350.22 417.00 347.85 C 415.79 342.62 412.28 338.40 410.64 333.35 C 409.31 329.01 406.27 325.52 404.50 321.38 C 403.19 318.35 400.45 316.27 399.03 313.31 C 395.58 306.30 389.38 301.22 385.47 294.52 C 380.59 288.75 374.99 283.62 370.15 277.80 C 365.81 272.46 359.22 269.51 355.25 263.85 C 357.45 257.92 359.15 251.82 360.48 245.65 Z" />
<path fill="#045fcd" d=" M 462.11 249.48 C 463.99 253.74 465.25 258.23 466.47 262.72 C 473.24 263.50 480.05 262.57 486.83 263.13 C 487.19 263.58 487.92 264.48 488.28 264.92 C 487.70 270.54 486.89 276.14 485.94 281.71 C 485.69 283.11 485.44 284.51 485.18 285.92 C 478.93 285.91 472.66 286.40 466.43 285.75 C 464.28 278.93 464.34 271.69 462.51 264.80 C 461.35 259.78 461.08 254.54 462.11 249.48 Z" />
<path fill="#1b3b81" d=" M 233.27 252.19 C 241.65 250.88 250.23 250.81 258.66 251.80 C 258.19 254.21 257.71 256.62 257.15 259.01 C 244.54 259.31 231.74 258.96 219.44 262.15 C 219.28 259.63 219.25 257.11 219.14 254.60 C 223.76 253.33 228.46 252.30 233.27 252.19 Z" />
<path fill="#16337a" d=" M 296.32 251.01 C 300.24 252.76 304.50 253.38 308.62 254.46 C 313.10 256.18 317.13 258.86 321.56 260.70 C 320.08 264.07 318.29 267.31 316.32 270.42 C 312.52 269.58 309.94 266.43 306.36 265.14 C 302.65 263.68 298.97 262.17 295.20 260.86 C 295.55 257.57 295.94 254.29 296.32 251.01 Z" />
<path fill="#1b3d82" d=" M 281.14 265.95 C 281.47 262.12 281.82 258.29 282.18 254.46 C 284.99 255.46 287.82 256.39 290.66 257.31 C 290.35 260.23 290.05 263.16 289.84 266.10 C 289.15 266.73 288.46 267.37 287.78 268.01 C 285.48 267.60 283.27 266.86 281.14 265.95 Z" />
<path fill="#16327a" d=" M 159.64 268.27 C 166.46 264.29 173.55 260.74 179.65 255.66 C 180.16 260.39 180.93 265.11 182.20 269.70 C 178.45 271.60 175.10 274.18 171.47 276.29 C 168.77 278.81 165.92 281.18 162.86 283.27 C 161.50 278.33 160.35 273.34 159.64 268.27 Z" />
<path fill="#1f4488" d=" M 214.62 258.04 C 214.98 263.30 215.38 268.59 216.56 273.75 C 214.24 274.79 211.95 275.89 209.81 277.25 L 209.28 277.57 C 207.60 272.16 206.58 266.56 206.00 260.93 C 208.80 259.76 211.69 258.82 214.62 258.04 Z" />
<path fill="#ffffff" d=" M 0.00 257.90 C 0.09 258.66 0.26 260.17 0.35 260.93 C 0.83 267.31 1.00 273.71 1.88 280.06 C 2.60 286.79 3.78 293.46 5.06 300.11 C 6.59 307.82 8.57 315.43 10.84 322.95 C 12.86 329.45 15.09 335.88 17.57 342.22 C 20.01 348.34 22.68 354.38 25.62 360.28 C 31.60 372.55 38.74 384.22 46.70 395.29 C 55.82 408.29 66.47 420.17 77.97 431.09 C 90.69 443.31 104.92 453.89 119.92 463.15 C 155.67 485.00 197.03 497.60 238.89 499.45 C 298.64 502.58 359.39 483.49 406.34 446.31 C 419.02 436.47 430.67 425.33 441.20 413.23 C 446.18 407.45 450.98 401.51 455.33 395.25 C 459.84 389.02 464.03 382.56 467.96 375.95 C 471.21 370.44 474.13 364.74 477.01 359.04 C 480.00 352.85 482.78 346.56 485.24 340.14 C 487.89 333.26 490.30 326.28 492.28 319.18 C 494.09 312.84 495.69 306.44 496.97 299.97 C 498.19 293.67 499.29 287.34 500.02 280.97 C 500.69 275.34 501.23 269.70 501.39 264.03 C 501.51 262.14 501.76 260.26 502.00 258.39 L 502.00 502.00 L 0.00 502.00 L 0.00 257.90 Z" />
<path fill="#204689" d=" M 219.44 262.15 C 231.74 258.96 244.54 259.31 257.15 259.01 C 256.40 262.07 255.53 265.10 254.52 268.09 C 243.08 267.67 231.52 267.82 220.39 270.85 C 219.95 267.97 219.64 265.06 219.44 262.15 Z" />
<path fill="#639cbe" d=" M 0.35 260.93 C 4.70 260.93 9.04 260.98 13.38 261.04 C 13.73 265.31 14.26 269.56 14.83 273.81 C 15.15 276.09 15.49 278.37 15.88 280.65 C 11.26 279.81 6.55 279.94 1.88 280.06 C 1.00 273.71 0.83 267.31 0.35 260.93 Z" />
<path fill="#1e4286" d=" M 295.20 260.86 C 298.97 262.17 302.65 263.68 306.36 265.14 C 309.94 266.43 312.52 269.58 316.32 270.42 C 312.44 276.59 307.13 281.86 300.88 285.63 C 295.03 278.89 294.03 269.39 295.20 260.86 Z" />
<path fill="#0f266e" d=" M 349.42 277.19 C 351.63 272.86 353.56 268.40 355.25 263.85 C 359.22 269.51 365.81 272.46 370.15 277.80 C 374.99 283.62 380.59 288.75 385.47 294.52 C 389.38 301.22 395.58 306.30 399.03 313.31 C 400.45 316.27 403.19 318.35 404.50 321.38 C 406.27 325.52 409.31 329.01 410.64 333.35 C 412.28 338.40 415.79 342.62 417.00 347.85 C 417.51 350.22 418.75 352.32 420.82 353.69 C 417.26 359.56 413.32 365.19 409.21 370.69 C 408.36 370.55 407.50 370.42 406.65 370.29 C 404.12 362.29 403.31 353.76 399.78 346.09 C 398.25 342.67 397.64 338.78 395.10 335.88 C 391.93 332.10 390.25 327.40 387.72 323.23 C 386.64 321.64 387.60 319.39 386.07 318.04 C 382.75 314.22 379.67 310.21 376.65 306.16 C 375.71 304.96 374.98 303.61 374.94 302.06 C 371.58 298.67 369.30 294.35 365.65 291.22 C 360.58 286.17 355.49 281.07 349.42 277.19 Z" />
<path fill="#639dbf" d=" M 488.38 263.83 C 492.71 263.93 497.05 264.00 501.39 264.03 C 501.23 269.70 500.69 275.34 500.02 280.97 C 495.31 280.83 490.58 280.86 485.94 281.71 C 486.89 276.14 487.70 270.54 488.28 264.92 C 488.31 264.65 488.36 264.10 488.38 263.83 Z" />
<path fill="#37a9ee" d=" M 48.10 264.67 C 49.09 274.39 50.43 284.10 52.63 293.63 C 56.00 308.50 61.28 322.89 67.86 336.63 C 74.62 350.65 83.19 363.75 92.92 375.88 C 97.60 381.77 102.80 387.23 108.07 392.61 C 112.52 397.06 117.28 401.18 122.08 405.25 C 128.71 410.82 135.85 415.74 143.10 420.46 C 174.57 440.44 211.85 450.65 249.03 450.89 C 283.42 450.64 317.87 441.95 347.75 424.76 C 357.54 419.01 367.03 412.70 375.76 405.41 C 381.30 400.68 386.89 395.95 391.92 390.66 C 398.02 384.30 403.95 377.76 409.21 370.69 C 413.32 365.19 417.26 359.56 420.82 353.69 C 426.26 344.69 431.13 335.34 435.10 325.60 C 442.52 307.90 447.21 289.13 449.40 270.08 C 449.81 272.03 450.44 273.98 450.38 276.00 C 449.60 303.24 442.55 330.32 429.76 354.40 C 421.11 369.64 411.25 384.35 398.82 396.80 C 394.81 400.74 390.97 404.86 386.78 408.60 C 357.79 433.82 321.64 450.61 283.69 456.56 C 266.96 459.59 249.88 459.62 232.96 458.84 C 193.48 455.92 154.75 441.91 123.07 418.09 C 113.86 411.35 105.74 403.34 97.70 395.28 C 94.27 392.06 91.22 388.46 88.34 384.73 C 77.87 371.56 68.85 357.15 62.29 341.62 C 60.08 336.63 58.46 331.40 56.32 326.38 C 51.78 313.03 49.24 299.05 48.03 285.02 C 47.61 278.25 47.04 271.41 48.10 264.67 Z" />
<path fill="#17347b" d=" M 324.57 282.41 C 328.85 276.81 332.46 270.72 335.56 264.40 C 339.16 266.43 342.51 268.90 345.32 271.95 C 342.43 278.04 338.81 283.75 334.92 289.25 C 331.35 287.16 327.92 284.84 324.57 282.41 Z" />
<path fill="#255092" d=" M 286.46 285.72 C 280.84 280.86 280.55 272.80 281.14 265.95 C 283.27 266.86 285.48 267.60 287.78 268.01 C 288.46 267.37 289.15 266.73 289.84 266.10 C 289.20 273.79 291.66 281.82 297.50 287.06 C 293.83 287.87 289.50 288.45 286.46 285.72 Z" />
<path fill="#265193" d=" M 220.39 270.85 C 231.52 267.82 243.08 267.67 254.52 268.09 C 253.43 271.15 252.27 274.22 250.68 277.07 L 249.96 277.23 C 244.54 275.50 238.90 276.91 233.42 277.45 C 229.67 277.83 225.93 278.31 222.28 279.24 C 221.47 276.49 220.88 273.68 220.39 270.85 Z" />
<path fill="#0d256b" d=" M 107.66 286.64 C 112.80 280.23 119.25 275.14 125.10 269.43 C 127.05 278.69 129.82 287.81 133.72 296.45 C 129.70 299.27 127.17 303.51 124.23 307.32 C 116.67 316.27 111.18 326.74 106.24 337.31 C 103.61 345.13 99.71 352.43 97.26 360.32 C 94.59 365.22 96.95 371.54 92.92 375.88 C 83.19 363.75 74.62 350.65 67.86 336.63 C 69.05 336.25 70.24 335.88 71.42 335.50 C 73.11 331.26 75.77 326.80 80.25 325.13 C 81.55 322.96 82.08 320.41 83.39 318.24 C 84.61 316.57 86.46 315.50 87.72 313.87 C 88.56 312.29 89.00 310.50 90.06 309.03 C 95.98 301.61 102.02 294.28 107.66 286.64 Z" />
<path fill="#1e4286" d=" M 171.47 276.29 C 175.10 274.18 178.45 271.60 182.20 269.70 C 183.32 273.57 184.70 277.38 186.49 281.00 C 183.34 284.53 178.64 285.95 175.24 289.17 C 172.74 291.46 169.91 293.33 167.01 295.06 C 165.44 291.19 164.02 287.27 162.86 283.27 C 165.92 281.18 168.77 278.81 171.47 276.29 Z" />
<path fill="#2a5899" d=" M 216.56 273.75 C 217.70 278.63 219.32 283.51 222.34 287.59 C 220.17 288.23 218.02 288.90 215.87 289.58 C 212.87 286.07 210.96 281.85 209.19 277.63 L 209.81 277.25 C 211.95 275.89 214.24 274.79 216.56 273.75 Z" />
<path fill="#2e5d9d" d=" M 233.42 277.45 C 238.90 276.91 244.54 275.50 249.96 277.23 L 250.29 277.74 C 249.00 280.98 246.69 283.70 244.63 286.48 C 238.61 285.28 232.88 287.99 226.93 288.27 C 224.71 285.66 223.35 282.46 222.28 279.24 C 225.93 278.31 229.67 277.83 233.42 277.45 Z" />
<path fill="#386eab" d=" M 244.47 298.15 C 251.78 292.83 257.04 285.27 261.41 277.47 C 261.89 286.80 265.23 297.48 274.37 301.70 C 283.63 305.68 294.60 304.49 303.61 300.34 C 307.37 303.15 310.81 306.43 314.98 308.67 C 305.59 314.57 293.91 317.33 282.98 314.93 C 273.32 312.53 266.26 304.75 261.25 296.55 C 260.00 297.91 258.77 299.29 257.48 300.62 C 253.11 300.01 248.75 299.25 244.47 298.15 Z" />
<path fill="#16337a" d=" M 341.67 290.36 C 344.53 286.14 347.06 281.70 349.42 277.19 C 355.49 281.07 360.58 286.17 365.65 291.22 C 369.30 294.35 371.58 298.67 374.94 302.06 C 374.98 303.61 375.71 304.96 376.65 306.16 C 379.67 310.21 382.75 314.22 386.07 318.04 C 387.60 319.39 386.64 321.64 387.72 323.23 C 390.25 327.40 391.93 332.10 395.10 335.88 C 397.64 338.78 398.25 342.67 399.78 346.09 C 403.31 353.76 404.12 362.29 406.65 370.29 C 407.50 370.42 408.36 370.55 409.21 370.69 C 403.95 377.76 398.02 384.30 391.92 390.66 C 388.73 384.88 391.04 378.15 388.97 372.12 C 387.61 367.40 386.79 362.54 385.06 357.94 C 383.42 353.64 383.49 348.84 381.25 344.76 C 379.63 341.72 377.80 338.79 376.38 335.65 C 372.75 327.69 368.01 320.24 362.44 313.49 C 356.40 305.04 349.09 297.59 341.67 290.36 Z" />
<path fill="#69a3c5" d=" M 1.88 280.06 C 6.55 279.94 11.26 279.81 15.88 280.65 C 16.96 287.17 18.38 293.63 20.00 300.04 C 15.02 300.03 10.04 300.08 5.06 300.11 C 3.78 293.46 2.60 286.79 1.88 280.06 Z" />
<path fill="#1e4388" d=" M 156.68 280.81 C 159.42 291.76 163.77 302.41 170.27 311.68 C 169.17 313.16 167.95 314.66 166.04 315.08 C 159.58 306.31 154.14 296.71 150.60 286.38 C 152.78 284.69 154.81 282.83 156.68 280.81 Z" />
<path fill="#275193" d=" M 186.49 281.00 C 188.28 284.50 190.38 287.85 192.85 290.91 C 189.06 293.48 185.01 295.64 181.28 298.30 C 178.05 300.50 176.01 304.22 172.17 305.55 C 170.27 302.15 168.49 298.67 167.01 295.06 C 169.91 293.33 172.74 291.46 175.24 289.17 C 178.64 285.95 183.34 284.53 186.49 281.00 Z" />
<path fill="#69a3c5" d=" M 485.94 281.71 C 490.58 280.86 495.31 280.83 500.02 280.97 C 499.29 287.34 498.19 293.67 496.97 299.97 C 491.99 300.06 487.01 300.01 482.03 299.94 C 483.21 295.29 484.28 290.62 485.18 285.92 C 485.44 284.51 485.69 283.11 485.94 281.71 Z" />
<path fill="#224a8c" d=" M 314.53 293.19 C 318.22 289.94 321.55 286.29 324.57 282.41 C 327.92 284.84 331.35 287.16 334.92 289.25 C 331.78 293.60 328.24 297.67 324.36 301.37 C 320.93 298.85 316.88 296.89 314.53 293.19 Z" />
<path fill="#3468a6" d=" M 226.93 288.27 C 232.88 287.99 238.61 285.28 244.63 286.48 C 240.27 291.57 233.84 295.32 226.96 294.77 C 222.67 294.82 218.81 292.53 215.87 289.58 C 218.02 288.90 220.17 288.23 222.34 287.59 C 224.28 289.92 226.91 291.52 229.68 292.71 C 230.09 290.66 228.03 289.62 226.93 288.27 Z" />
<path fill="#0870e0" d=" M 458.60 293.97 C 458.60 291.47 459.00 289.00 459.50 286.55 C 460.16 289.66 460.85 292.78 461.00 295.97 C 461.65 302.90 459.03 310.20 462.44 316.73 C 467.27 317.29 472.13 317.10 476.98 316.92 C 476.67 317.82 476.37 318.73 476.06 319.63 C 473.59 326.48 470.86 333.24 467.85 339.87 C 467.33 340.99 466.81 342.11 466.29 343.23 C 462.01 343.19 457.72 343.09 453.48 342.50 C 452.81 338.27 452.73 333.97 453.15 329.72 C 454.61 325.30 455.59 320.74 456.12 316.12 C 457.02 308.74 458.56 301.42 458.60 293.97 Z" />
<path fill="#2e5e9e" d=" M 192.85 290.91 C 194.78 293.28 196.94 295.47 199.36 297.35 C 192.25 303.13 185.36 309.18 177.97 314.58 C 175.87 311.68 173.93 308.67 172.17 305.55 C 176.01 304.22 178.05 300.50 181.28 298.30 C 185.01 295.64 189.06 293.48 192.85 290.91 Z" />
<path fill="#1e4488" d=" M 333.45 301.07 C 336.45 297.71 339.13 294.08 341.67 290.36 C 349.09 297.59 356.40 305.04 362.44 313.49 C 368.01 320.24 372.75 327.69 376.38 335.65 C 377.80 338.79 379.63 341.72 381.25 344.76 C 383.49 348.84 383.42 353.64 385.06 357.94 C 386.79 362.54 387.61 367.40 388.97 372.12 C 391.04 378.15 388.73 384.88 391.92 390.66 C 386.89 395.95 381.30 400.68 375.76 405.41 C 375.06 404.74 374.36 404.07 373.67 403.41 C 373.47 399.74 373.33 395.93 375.03 392.55 C 376.57 386.28 374.17 379.86 373.24 373.67 C 369.79 362.18 366.98 350.33 361.37 339.66 C 357.22 332.84 353.72 325.60 348.55 319.46 C 344.36 312.64 337.87 307.69 333.45 301.07 Z" />
<path fill="#2a5a99" d=" M 303.61 300.34 C 307.57 298.50 311.21 296.02 314.53 293.19 C 316.88 296.89 320.93 298.85 324.36 301.37 C 321.45 304.07 318.33 306.53 314.98 308.67 C 310.81 306.43 307.37 303.15 303.61 300.34 Z" />
<path fill="#17357b" d=" M 133.72 296.45 C 135.48 300.36 137.46 304.16 139.62 307.86 C 130.42 318.71 123.91 331.54 118.50 344.63 C 113.44 354.90 110.40 366.05 108.56 377.32 C 108.40 380.15 109.86 382.83 109.63 385.68 C 109.37 388.03 108.66 390.31 108.07 392.61 C 102.80 387.23 97.60 381.77 92.92 375.88 C 96.95 371.54 94.59 365.22 97.26 360.32 C 99.71 352.43 103.61 345.13 106.24 337.31 C 111.18 326.74 116.67 316.27 124.23 307.32 C 127.17 303.51 129.70 299.27 133.72 296.45 Z" />
<path fill="#366aa8" d=" M 177.97 314.58 C 185.36 309.18 192.25 303.13 199.36 297.35 C 203.55 300.56 208.35 303.00 213.54 304.11 C 210.35 306.13 206.87 307.62 203.53 309.36 C 201.71 308.02 199.94 306.62 198.07 305.37 C 198.71 306.54 199.41 307.68 200.22 308.75 C 195.39 313.81 188.92 316.93 184.34 322.25 C 182.05 319.84 179.92 317.28 177.97 314.58 Z" />
<path fill="#437ab6" d=" M 213.54 304.11 C 224.10 306.42 235.74 304.82 244.47 298.15 C 248.75 299.25 253.11 300.01 257.48 300.62 C 250.45 307.55 241.97 313.66 232.05 315.38 C 222.26 316.67 211.79 314.98 203.53 309.36 C 206.87 307.62 210.35 306.13 213.54 304.11 Z" />
<path fill="#6faacb" d=" M 5.06 300.11 C 10.04 300.08 15.02 300.03 20.00 300.04 C 20.27 301.10 20.55 302.16 20.83 303.23 C 22.61 309.89 24.78 316.45 27.16 322.92 C 21.72 322.94 16.28 322.94 10.84 322.95 C 8.57 315.43 6.59 307.82 5.06 300.11 Z" />
<path fill="#6eaaca" d=" M 482.03 299.94 C 487.01 300.01 491.99 300.06 496.97 299.97 C 495.69 306.44 494.09 312.84 492.28 319.18 C 486.87 319.00 481.41 318.61 476.06 319.63 C 476.37 318.73 476.67 317.82 476.98 316.92 C 478.85 311.32 480.57 305.66 482.03 299.94 Z" />
<path fill="#265595" d=" M 322.96 311.08 C 326.79 308.12 330.29 304.74 333.45 301.07 C 337.87 307.69 344.36 312.64 348.55 319.46 C 353.72 325.60 357.22 332.84 361.37 339.66 C 366.98 350.33 369.79 362.18 373.24 373.67 C 374.17 379.86 376.57 386.28 375.03 392.55 C 373.33 395.93 373.47 399.74 373.67 403.41 C 374.36 404.07 375.06 404.74 375.76 405.41 C 367.03 412.70 357.54 419.01 347.75 424.76 C 346.92 421.87 346.96 418.82 347.80 415.94 C 348.29 410.82 355.19 409.94 355.79 404.83 C 356.66 399.40 358.21 393.95 357.61 388.39 C 357.29 384.40 356.47 380.47 355.60 376.57 C 354.47 371.59 354.63 366.27 352.35 361.59 C 350.18 357.12 349.87 352.00 347.56 347.59 C 345.09 342.96 343.75 337.70 340.27 333.67 C 338.06 331.05 336.61 327.95 335.05 324.94 C 332.12 319.42 326.61 316.04 322.96 311.08 Z" />
<path fill="#467fba" d=" M 246.52 315.43 C 252.52 312.06 257.57 307.33 262.55 302.65 C 267.35 310.92 274.40 318.68 283.98 321.13 C 291.68 322.96 299.85 321.99 307.33 319.63 C 308.33 321.80 309.52 323.88 310.92 325.83 C 303.93 329.97 297.79 335.44 290.56 339.23 C 285.46 333.37 279.43 328.42 273.14 323.90 C 265.28 318.61 255.78 316.58 246.52 315.43 Z" />
<path fill="#1e4487" d=" M 139.62 307.86 C 141.79 311.52 144.07 315.13 146.60 318.56 C 138.38 330.53 130.76 343.19 126.83 357.28 C 125.78 366.67 122.43 375.65 121.28 385.04 C 121.03 387.62 121.02 390.36 122.35 392.69 C 124.43 396.29 124.36 400.53 124.56 404.55 C 123.94 404.73 122.70 405.08 122.08 405.25 C 117.28 401.18 112.52 397.06 108.07 392.61 C 108.66 390.31 109.37 388.03 109.63 385.68 C 109.86 382.83 108.40 380.15 108.56 377.32 C 110.40 366.05 113.44 354.90 118.50 344.63 C 123.91 331.54 130.42 318.71 139.62 307.86 Z" />
<path fill="#3e75b1" d=" M 200.22 308.75 C 202.40 311.11 204.79 313.28 207.39 315.18 C 205.46 317.04 203.36 318.73 201.06 320.13 C 197.25 322.40 194.67 326.17 191.01 328.64 C 188.68 326.63 186.47 324.48 184.34 322.25 C 188.92 316.93 195.39 313.81 200.22 308.75 Z" />
<path fill="#2c65a1" d=" M 322.96 311.08 C 326.61 316.04 332.12 319.42 335.05 324.94 C 336.61 327.95 338.06 331.05 340.27 333.67 C 343.75 337.70 345.09 342.96 347.56 347.59 C 349.87 352.00 350.18 357.12 352.35 361.59 C 354.63 366.27 354.47 371.59 355.60 376.57 C 356.47 380.47 357.29 384.40 357.61 388.39 C 358.21 393.95 356.66 399.40 355.79 404.83 C 355.19 409.94 348.29 410.82 347.80 415.94 C 346.96 418.82 346.92 421.87 347.75 424.76 C 317.87 441.95 283.42 450.64 249.03 450.89 C 211.85 450.65 174.57 440.44 143.10 420.46 C 144.38 420.04 145.00 419.21 144.96 417.99 C 144.89 415.08 144.48 412.14 143.48 409.41 C 142.13 407.22 139.65 405.94 138.45 403.66 C 137.00 399.12 137.59 394.30 137.67 389.62 C 137.59 376.99 140.30 364.44 144.63 352.63 C 146.87 344.49 150.90 336.81 156.24 330.28 C 158.97 333.15 161.74 336.00 164.69 338.66 C 160.13 347.18 155.58 356.08 154.61 365.84 C 153.81 371.87 152.15 377.88 152.66 384.02 C 152.79 389.11 154.30 394.05 154.36 399.15 C 154.24 405.29 157.60 410.73 158.49 416.71 C 165.37 420.37 172.62 423.35 179.93 426.04 C 189.52 429.39 199.18 432.80 209.28 434.24 C 229.70 438.72 250.90 439.40 271.64 436.99 C 277.76 436.59 283.78 435.42 289.78 434.18 C 298.69 432.54 307.36 429.80 315.91 426.82 C 319.88 425.25 324.07 424.01 327.63 421.59 C 331.22 412.23 335.12 402.87 336.88 392.93 C 337.11 389.93 336.23 386.99 336.24 384.01 C 336.18 380.37 337.50 376.76 336.69 373.14 C 335.98 369.79 335.24 366.44 335.02 363.02 C 334.85 357.05 330.75 352.26 329.41 346.59 C 329.58 346.27 329.91 345.65 330.08 345.34 C 328.94 344.32 327.79 343.29 326.65 342.28 C 325.36 343.66 324.07 345.04 322.75 346.40 C 321.80 341.79 319.62 337.60 316.89 333.81 C 318.25 331.33 319.54 327.98 317.67 325.42 C 315.54 324.05 313.06 325.13 310.92 325.83 C 309.52 323.88 308.33 321.80 307.33 319.63 C 312.98 317.70 318.24 314.73 322.96 311.08 Z" />
<path fill="#366ba8" d=" M 170.27 311.68 C 175.72 319.37 182.23 326.35 189.87 331.91 C 189.61 333.78 189.33 335.65 189.04 337.53 C 180.26 331.31 172.47 323.71 166.04 315.08 C 167.95 314.66 169.17 313.16 170.27 311.68 Z" />
<path fill="#467eba" d=" M 207.39 315.18 C 210.47 317.27 213.83 318.98 217.42 319.99 C 210.99 324.45 204.63 329.02 199.05 334.55 C 196.27 332.72 193.56 330.78 191.01 328.64 C 194.67 326.17 197.25 322.40 201.06 320.13 C 203.36 318.73 205.46 317.04 207.39 315.18 Z" />
<path fill="#538cc7" d=" M 217.42 319.99 C 227.25 322.53 237.83 320.50 246.52 315.43 C 255.78 316.58 265.28 318.61 273.14 323.90 C 279.43 328.42 285.46 333.37 290.56 339.23 C 285.04 342.37 279.23 344.95 273.26 347.09 C 267.12 338.72 257.06 334.36 247.04 332.91 C 239.80 331.97 232.62 334.18 226.02 336.96 C 220.17 339.39 216.16 344.47 211.69 348.72 C 203.65 346.12 195.92 342.44 189.04 337.53 C 189.33 335.65 189.61 333.78 189.87 331.91 C 194.37 335.12 198.96 338.22 203.89 340.73 C 204.32 340.14 205.16 338.95 205.58 338.35 C 203.37 337.13 201.17 335.91 199.05 334.55 C 204.63 329.02 210.99 324.45 217.42 319.99 Z" />
<path fill="#255394" d=" M 146.60 318.56 C 149.61 322.63 152.78 326.58 156.24 330.28 C 150.90 336.81 146.87 344.49 144.63 352.63 C 140.30 364.44 137.59 376.99 137.67 389.62 C 137.59 394.30 137.00 399.12 138.45 403.66 C 139.65 405.94 142.13 407.22 143.48 409.41 C 144.48 412.14 144.89 415.08 144.96 417.99 C 145.00 419.21 144.38 420.04 143.10 420.46 C 135.85 415.74 128.71 410.82 122.08 405.25 C 122.70 405.08 123.94 404.73 124.56 404.55 C 124.36 400.53 124.43 396.29 122.35 392.69 C 121.02 390.36 121.03 387.62 121.28 385.04 C 122.43 375.65 125.78 366.67 126.83 357.28 C 130.76 343.19 138.38 330.53 146.60 318.56 Z" />
<path fill="#74b1d1" d=" M 476.06 319.63 C 481.41 318.61 486.87 319.00 492.28 319.18 C 490.30 326.28 487.89 333.26 485.24 340.14 C 479.44 340.02 473.64 340.03 467.85 339.87 C 470.86 333.24 473.59 326.48 476.06 319.63 Z" />
<path fill="#75b2d1" d=" M 10.84 322.95 C 16.28 322.94 21.72 322.94 27.16 322.92 C 28.38 326.11 29.65 329.28 30.90 332.47 C 32.21 335.67 33.63 338.83 35.09 341.98 C 29.25 342.01 23.40 341.88 17.57 342.22 C 15.09 335.88 12.86 329.45 10.84 322.95 Z" />
<path fill="#0d79e5" d=" M 42.20 326.04 C 43.54 326.25 44.87 326.45 46.21 326.66 C 48.32 334.90 50.82 343.09 54.14 350.94 C 54.44 355.21 54.95 359.50 54.62 363.79 C 52.10 364.01 49.58 364.15 47.06 364.22 C 46.16 362.72 45.29 361.21 44.42 359.71 C 41.10 353.91 37.93 348.02 35.09 341.98 C 33.63 338.83 32.21 335.67 30.90 332.47 C 33.55 332.81 36.26 333.40 38.93 332.89 C 42.32 332.58 41.28 328.35 42.20 326.04 Z" />
<path fill="#18b0f7" d=" M 56.32 326.38 C 58.46 331.40 60.08 336.63 62.29 341.62 C 68.85 357.15 77.87 371.56 88.34 384.73 C 91.22 388.46 94.27 392.06 97.70 395.28 C 95.91 396.47 96.53 398.58 96.61 400.37 C 93.83 400.38 91.16 399.49 88.94 397.81 C 82.96 390.30 77.69 382.29 72.04 374.54 C 68.66 368.65 65.71 362.54 62.99 356.31 C 60.82 347.01 56.35 338.42 54.29 329.07 C 54.96 328.17 55.64 327.27 56.32 326.38 Z" />
<path fill="#107ce6" d=" M 444.91 345.16 C 449.13 340.75 447.94 333.28 453.15 329.72 C 452.73 333.97 452.81 338.27 453.48 342.50 C 457.72 343.09 462.01 343.19 466.29 343.23 C 463.79 348.61 460.95 353.82 458.02 358.98 C 455.84 362.79 453.46 366.49 451.11 370.20 C 447.90 370.14 444.71 370.03 441.51 369.88 C 441.73 369.15 441.94 368.43 442.17 367.71 C 441.10 366.59 439.95 365.32 440.26 363.64 C 440.73 357.27 442.99 351.20 444.91 345.16 Z" />
<path fill="#629bd5" d=" M 226.02 336.96 C 232.62 334.18 239.80 331.97 247.04 332.91 C 257.06 334.36 267.12 338.72 273.26 347.09 C 253.62 354.00 231.64 354.86 211.69 348.72 C 216.16 344.47 220.17 339.39 226.02 336.96 Z" />
<path fill="#3d75b1" d=" M 305.39 344.55 C 309.67 341.51 313.87 338.17 316.89 333.81 C 319.62 337.60 321.80 341.79 322.75 346.40 C 318.67 350.69 314.25 354.63 309.54 358.21 C 308.58 353.54 307.10 349.00 305.39 344.55 Z" />
<path fill="#366eaa" d=" M 164.69 338.66 C 166.93 340.64 169.22 342.58 171.58 344.42 C 169.52 350.53 166.34 356.32 165.62 362.83 C 163.86 369.74 164.58 376.89 164.29 383.94 C 165.25 391.26 165.97 398.84 169.41 405.51 C 172.40 412.61 176.48 419.17 179.93 426.04 C 172.62 423.35 165.37 420.37 158.49 416.71 C 157.60 410.73 154.24 405.29 154.36 399.15 C 154.30 394.05 152.79 389.11 152.66 384.02 C 152.15 377.88 153.81 371.87 154.61 365.84 C 155.58 356.08 160.13 347.18 164.69 338.66 Z" />
<path fill="#7ab7d6" d=" M 467.85 339.87 C 473.64 340.03 479.44 340.02 485.24 340.14 C 482.78 346.56 480.00 352.85 477.01 359.04 C 470.68 359.06 464.35 358.88 458.02 358.98 C 460.95 353.82 463.79 348.61 466.29 343.23 C 466.81 342.11 467.33 340.99 467.85 339.87 Z" />
<path fill="#1789ea" d=" M 54.14 350.94 C 56.77 348.10 53.41 344.23 55.39 341.02 C 57.83 346.17 59.44 351.76 62.99 356.31 C 65.71 362.54 68.66 368.65 72.04 374.54 C 72.14 377.55 73.51 380.24 74.25 383.09 C 74.11 386.53 74.26 390.03 73.37 393.39 C 71.88 393.74 70.39 394.10 68.91 394.48 C 60.95 384.90 53.51 374.87 47.06 364.22 C 49.58 364.15 52.10 364.01 54.62 363.79 C 54.95 359.50 54.44 355.21 54.14 350.94 Z" />
<path fill="#1989ea" d=" M 442.06 344.15 C 442.93 343.15 443.85 342.19 444.77 341.23 C 444.83 342.54 444.88 343.85 444.91 345.16 C 442.99 351.20 440.73 357.27 440.26 363.64 C 439.95 365.32 441.10 366.59 442.17 367.71 C 441.94 368.43 441.73 369.15 441.51 369.88 C 444.71 370.03 447.90 370.14 451.11 370.20 C 449.94 372.03 448.77 373.86 447.54 375.65 C 443.07 382.08 438.25 388.27 433.25 394.30 C 430.08 393.73 424.65 395.33 423.42 391.31 C 423.74 386.48 424.91 381.67 426.11 376.98 C 427.35 375.25 428.56 373.48 429.53 371.58 C 433.88 362.51 438.21 353.44 442.06 344.15 Z" />
<path fill="#7ab8d7" d=" M 17.57 342.22 C 23.40 341.88 29.25 342.01 35.09 341.98 C 37.93 348.02 41.10 353.91 44.42 359.71 C 38.17 360.28 31.88 360.01 25.62 360.28 C 22.68 354.38 20.01 348.34 17.57 342.22 Z" />
<path fill="#ffffff" d=" M 322.75 346.40 C 324.07 345.04 325.36 343.66 326.65 342.28 C 327.79 343.29 328.94 344.32 330.08 345.34 C 329.91 345.65 329.58 346.27 329.41 346.59 C 325.77 351.78 321.37 356.41 316.54 360.50 C 315.02 361.73 313.45 362.91 311.86 364.05 C 306.53 367.83 300.72 370.87 294.74 373.48 C 290.22 375.35 285.62 377.03 280.90 378.33 C 275.41 379.78 269.86 381.01 264.23 381.78 C 250.51 383.49 236.49 383.74 222.82 381.47 C 217.07 380.43 211.46 378.70 206.11 376.38 C 201.09 374.09 196.48 371.03 192.04 367.80 C 187.68 364.23 183.00 360.77 179.89 356.01 C 184.24 358.20 187.45 362.09 191.69 364.51 C 197.51 368.34 203.96 371.13 210.59 373.24 C 214.86 374.62 219.25 375.56 223.67 376.34 C 236.66 378.37 249.96 378.22 263.00 376.67 C 266.47 376.16 269.95 375.59 273.37 374.82 C 277.15 373.96 280.88 372.92 284.54 371.63 C 288.60 370.19 292.61 368.56 296.42 366.52 C 300.96 364.04 305.43 361.38 309.54 358.21 C 314.25 354.63 318.67 350.69 322.75 346.40 Z" />
<path fill="#3e77b3" d=" M 171.58 344.42 C 174.53 346.67 177.57 348.81 180.73 350.75 C 177.87 356.75 175.59 363.22 175.96 369.96 C 176.31 378.46 175.25 387.35 178.56 395.42 C 180.18 399.21 181.21 403.24 182.98 406.98 C 187.18 414.47 192.89 421.03 199.36 426.65 C 202.62 429.24 206.39 431.18 209.28 434.24 C 199.18 432.80 189.52 429.39 179.93 426.04 C 176.48 419.17 172.40 412.61 169.41 405.51 C 165.97 398.84 165.25 391.26 164.29 383.94 C 164.58 376.89 163.86 369.74 165.62 362.83 C 166.34 356.32 169.52 350.53 171.58 344.42 Z" />
<path fill="#4982bd" d=" M 294.28 351.65 C 298.11 349.50 301.79 347.08 305.39 344.55 C 307.10 349.00 308.58 353.54 309.54 358.21 C 305.43 361.38 300.96 364.04 296.42 366.52 C 295.67 361.57 295.31 356.56 294.28 351.65 Z" />
<path fill="#3871ad" d=" M 316.54 360.50 C 321.37 356.41 325.77 351.78 329.41 346.59 C 330.75 352.26 334.85 357.05 335.02 363.02 C 335.24 366.44 335.98 369.79 336.69 373.14 C 337.50 376.76 336.18 380.37 336.24 384.01 C 336.23 386.99 337.11 389.93 336.88 392.93 C 335.12 402.87 331.22 412.23 327.63 421.59 C 324.07 424.01 319.88 425.25 315.91 426.82 C 307.36 429.80 298.69 432.54 289.78 434.18 C 294.44 428.40 300.72 424.04 304.68 417.69 C 310.61 408.39 316.30 398.39 317.46 387.22 C 318.42 378.36 318.97 369.18 316.54 360.50 Z" />
<path fill="#4882bd" d=" M 175.96 369.96 C 175.59 363.22 177.87 356.75 180.73 350.75 C 184.55 353.05 188.42 355.27 192.53 357.02 C 192.38 359.53 192.06 362.02 191.69 364.51 C 187.45 362.09 184.24 358.20 179.89 356.01 C 183.00 360.77 187.68 364.23 192.04 367.80 C 190.35 378.14 193.15 388.90 198.11 398.00 C 208.58 417.24 232.30 428.87 253.84 423.73 C 269.08 421.29 281.75 410.41 289.32 397.34 C 292.99 390.00 295.89 381.82 294.74 373.48 C 300.72 370.87 306.53 367.83 311.86 364.05 C 311.32 369.38 312.75 374.62 312.70 379.92 C 310.45 394.90 304.63 409.83 293.65 420.59 C 287.56 427.58 279.79 432.73 271.64 436.99 C 250.90 439.40 229.70 438.72 209.28 434.24 C 206.39 431.18 202.62 429.24 199.36 426.65 C 192.89 421.03 187.18 414.47 182.98 406.98 C 181.21 403.24 180.18 399.21 178.56 395.42 C 175.25 387.35 176.31 378.46 175.96 369.96 Z" />
<path fill="#548ec9" d=" M 283.48 356.94 C 287.17 355.38 290.74 353.54 294.28 351.65 C 295.31 356.56 295.67 361.57 296.42 366.52 C 292.61 368.56 288.60 370.19 284.54 371.63 C 283.93 366.76 282.73 361.87 283.48 356.94 Z" />
<path fill="#1fb3f8" d=" M 398.82 396.80 C 411.25 384.35 421.11 369.64 429.76 354.40 C 430.33 355.22 430.90 356.05 431.48 356.88 C 429.58 362.57 427.87 368.45 424.38 373.41 C 422.21 376.49 420.51 379.86 419.13 383.36 C 412.84 392.74 405.95 401.69 398.74 410.38 C 392.69 415.93 386.82 421.81 379.85 426.21 C 383.81 419.33 391.07 415.02 395.09 408.15 C 390.32 411.90 386.36 416.65 380.99 419.61 C 383.10 415.51 386.90 412.78 389.89 409.40 C 389.11 409.20 387.56 408.80 386.78 408.60 C 390.97 404.86 394.81 400.74 398.82 396.80 Z" />
<path fill="#5993cd" d=" M 192.53 357.02 C 198.60 359.70 204.89 361.91 211.37 363.37 C 211.03 366.65 210.76 369.94 210.59 373.24 C 203.96 371.13 197.51 368.34 191.69 364.51 C 192.06 362.02 192.38 359.53 192.53 357.02 Z" />
<path fill="#5e98d2" d=" M 271.57 361.25 C 275.61 360.03 279.58 358.58 283.48 356.94 C 282.73 361.87 283.93 366.76 284.54 371.63 C 280.88 372.92 277.15 373.96 273.37 374.82 C 273.86 370.20 273.63 365.48 271.57 361.25 Z" />
<path fill="#7ebddb" d=" M 458.02 358.98 C 464.35 358.88 470.68 359.06 477.01 359.04 C 474.13 364.74 471.21 370.44 467.96 375.95 C 461.15 375.93 454.33 376.20 447.54 375.65 C 448.77 373.86 449.94 372.03 451.11 370.20 C 453.46 366.49 455.84 362.79 458.02 358.98 Z" />
<path fill="#81c1de" d=" M 25.62 360.28 C 31.88 360.01 38.17 360.28 44.42 359.71 C 45.29 361.21 46.16 362.72 47.06 364.22 C 53.51 374.87 60.95 384.90 68.91 394.48 L 69.25 394.88 C 61.73 395.19 54.21 394.89 46.70 395.29 C 38.74 384.22 31.60 372.55 25.62 360.28 Z" />
<path fill="#4079b5" d=" M 311.86 364.05 C 313.45 362.91 315.02 361.73 316.54 360.50 C 318.97 369.18 318.42 378.36 317.46 387.22 C 316.30 398.39 310.61 408.39 304.68 417.69 C 300.72 424.04 294.44 428.40 289.78 434.18 C 283.78 435.42 277.76 436.59 271.64 436.99 C 279.79 432.73 287.56 427.58 293.65 420.59 C 304.63 409.83 310.45 394.90 312.70 379.92 C 312.75 374.62 311.32 369.38 311.86 364.05 Z" />
<path fill="#67a0da" d=" M 261.14 363.81 C 264.65 363.12 268.13 362.26 271.57 361.25 C 273.63 365.48 273.86 370.20 273.37 374.82 C 269.95 375.59 266.47 376.16 263.00 376.67 C 263.11 372.30 262.58 367.94 261.14 363.81 Z" />
<path fill="#669fd9" d=" M 211.37 363.37 C 215.86 364.38 220.42 365.12 225.00 365.59 C 224.41 369.15 223.98 372.74 223.67 376.34 C 219.25 375.56 214.86 374.62 210.59 373.24 C 210.76 369.94 211.03 366.65 211.37 363.37 Z" />
<path fill="#6fa8e2" d=" M 225.00 365.59 C 237.05 366.51 249.26 366.19 261.14 363.81 C 262.58 367.94 263.11 372.30 263.00 376.67 C 249.96 378.22 236.66 378.37 223.67 376.34 C 223.98 372.74 224.41 369.15 225.00 365.59 Z" />
<path fill="#568fca" d=" M 192.04 367.80 C 196.48 371.03 201.09 374.09 206.11 376.38 C 206.25 384.85 210.76 392.59 216.12 398.87 C 224.37 407.54 237.07 412.49 248.99 410.06 C 265.32 408.55 278.52 394.18 280.90 378.33 C 285.62 377.03 290.22 375.35 294.74 373.48 C 295.89 381.82 292.99 390.00 289.32 397.34 C 281.75 410.41 269.08 421.29 253.84 423.73 C 232.30 428.87 208.58 417.24 198.11 398.00 C 193.15 388.90 190.35 378.14 192.04 367.80 Z" />
<path fill="#2294ec" d=" M 72.04 374.54 C 77.69 382.29 82.96 390.30 88.94 397.81 C 90.48 400.30 92.20 402.69 94.06 404.97 C 96.81 408.31 98.23 412.60 101.48 415.54 C 101.02 417.49 100.68 419.69 102.37 421.19 C 101.89 422.73 100.78 423.84 99.34 424.54 C 88.58 415.43 78.29 405.71 69.25 394.88 L 68.91 394.48 C 70.39 394.10 71.88 393.74 73.37 393.39 C 74.26 390.03 74.11 386.53 74.25 383.09 C 73.51 380.24 72.14 377.55 72.04 374.54 Z" />
<path fill="#83c3e0" d=" M 433.25 394.30 C 438.25 388.27 443.07 382.08 447.54 375.65 C 454.33 376.20 461.15 375.93 467.96 375.95 C 464.03 382.56 459.84 389.02 455.33 395.25 C 447.83 394.77 440.32 395.21 432.82 394.81 L 433.25 394.30 Z" />
<path fill="#629bd6" d=" M 206.11 376.38 C 211.46 378.70 217.07 380.43 222.82 381.47 C 225.93 388.56 232.52 394.10 240.39 394.79 C 250.35 397.17 259.57 390.02 264.23 381.78 C 269.86 381.01 275.41 379.78 280.90 378.33 C 278.52 394.18 265.32 408.55 248.99 410.06 C 237.07 412.49 224.37 407.54 216.12 398.87 C 210.76 392.59 206.25 384.85 206.11 376.38 Z" />
<path fill="#2293ec" d=" M 419.13 383.36 C 421.41 381.18 423.85 379.18 426.11 376.98 C 424.91 381.67 423.74 386.48 423.42 391.31 C 424.65 395.33 430.08 393.73 433.25 394.30 L 432.82 394.81 C 427.49 401.15 421.72 407.13 415.75 412.87 C 413.52 415.00 411.26 417.10 408.96 419.16 C 406.52 418.79 403.17 419.71 401.62 417.23 C 400.02 415.59 401.23 413.33 401.46 411.43 C 400.78 411.16 399.42 410.64 398.74 410.38 C 405.95 401.69 412.84 392.74 419.13 383.36 Z" />
<path fill="#6ba4de" d=" M 222.82 381.47 C 236.49 383.74 250.51 383.49 264.23 381.78 C 259.57 390.02 250.35 397.17 240.39 394.79 C 232.52 394.10 225.93 388.56 222.82 381.47 Z" />
<path fill="#8acbe7" d=" M 46.70 395.29 C 54.21 394.89 61.73 395.19 69.25 394.88 C 78.29 405.71 88.58 415.43 99.34 424.54 C 101.93 426.68 104.59 428.75 107.23 430.83 C 97.48 431.10 87.73 430.95 77.97 431.09 C 66.47 420.17 55.82 408.29 46.70 395.29 Z" />
<path fill="#88c8e5" d=" M 415.75 412.87 C 421.72 407.13 427.49 401.15 432.82 394.81 C 440.32 395.21 447.83 394.77 455.33 395.25 C 450.98 401.51 446.18 407.45 441.20 413.23 C 432.72 412.83 424.23 413.36 415.75 412.87 Z" />
<path fill="#26b1f5" d=" M 96.61 400.37 C 96.53 398.58 95.91 396.47 97.70 395.28 C 105.74 403.34 113.86 411.35 123.07 418.09 C 122.17 418.54 121.27 418.99 120.38 419.45 C 124.32 425.88 130.82 429.84 136.91 433.95 C 136.92 434.54 136.95 435.72 136.96 436.31 C 129.70 432.32 123.37 426.89 116.13 422.87 C 117.65 424.92 119.22 426.93 120.79 428.96 C 113.56 425.70 107.66 420.36 101.48 415.54 C 98.23 412.60 96.81 408.31 94.06 404.97 C 92.20 402.69 90.48 400.30 88.94 397.81 C 91.16 399.49 93.83 400.38 96.61 400.37 Z" />
<path fill="#37a8ee" d=" M 380.99 419.61 C 386.36 416.65 390.32 411.90 395.09 408.15 C 391.07 415.02 383.81 419.33 379.85 426.21 C 376.17 431.31 369.51 435.83 370.36 442.86 C 372.32 443.06 374.29 443.26 376.26 443.46 C 375.08 444.21 373.90 444.96 372.71 445.69 C 334.67 468.33 290.20 479.93 245.96 478.88 C 218.08 478.35 190.31 472.86 164.32 462.76 C 159.38 460.78 154.49 458.68 149.68 456.38 C 154.89 454.68 160.40 454.83 165.80 454.88 C 163.14 453.38 160.40 452.02 157.83 450.37 C 154.96 448.59 153.05 445.60 150.00 444.08 C 145.47 441.80 141.25 438.99 136.96 436.31 C 136.95 435.72 136.92 434.54 136.91 433.95 C 142.16 437.26 147.75 439.95 153.23 442.86 C 166.12 450.47 180.32 455.65 194.79 459.34 C 207.21 463.02 220.11 464.73 232.95 466.11 C 243.28 466.39 253.63 466.32 263.96 466.18 C 277.74 464.90 291.54 462.92 304.82 458.90 C 321.24 454.83 336.81 447.89 351.44 439.47 C 362.18 434.27 371.45 426.66 380.99 419.61 Z" />
<path fill="#35c3f9" d=" M 283.69 456.56 C 321.64 450.61 357.79 433.82 386.78 408.60 C 387.56 408.80 389.11 409.20 389.89 409.40 C 386.90 412.78 383.10 415.51 380.99 419.61 C 371.45 426.66 362.18 434.27 351.44 439.47 C 336.81 447.89 321.24 454.83 304.82 458.90 C 291.54 462.92 277.74 464.90 263.96 466.18 C 253.63 466.32 243.28 466.39 232.95 466.11 C 220.11 464.73 207.21 463.02 194.79 459.34 C 180.32 455.65 166.12 450.47 153.23 442.86 C 147.75 439.95 142.16 437.26 136.91 433.95 C 130.82 429.84 124.32 425.88 120.38 419.45 C 121.27 418.99 122.17 418.54 123.07 418.09 C 154.75 441.91 193.48 455.92 232.96 458.84 C 249.88 459.62 266.96 459.59 283.69 456.56 Z" />
<path fill="#2c9cec" d=" M 379.85 426.21 C 386.82 421.81 392.69 415.93 398.74 410.38 C 399.42 410.64 400.78 411.16 401.46 411.43 C 401.23 413.33 400.02 415.59 401.62 417.23 C 403.17 419.71 406.52 418.79 408.96 419.16 C 398.82 428.22 387.75 436.20 376.26 443.46 C 374.29 443.26 372.32 443.06 370.36 442.86 C 369.51 435.83 376.17 431.31 379.85 426.21 Z" />
<path fill="#8dcfeb" d=" M 408.96 419.16 C 411.26 417.10 413.52 415.00 415.75 412.87 C 424.23 413.36 432.72 412.83 441.20 413.23 C 430.67 425.33 419.02 436.47 406.34 446.31 C 395.14 445.71 383.89 446.71 372.71 445.69 C 373.90 444.96 375.08 444.21 376.26 443.46 C 387.75 436.20 398.82 428.22 408.96 419.16 Z" />
<path fill="#30a1ed" d=" M 101.48 415.54 C 107.66 420.36 113.56 425.70 120.79 428.96 C 119.22 426.93 117.65 424.92 116.13 422.87 C 123.37 426.89 129.70 432.32 136.96 436.31 C 141.25 438.99 145.47 441.80 150.00 444.08 C 153.05 445.60 154.96 448.59 157.83 450.37 C 160.40 452.02 163.14 453.38 165.80 454.88 C 160.40 454.83 154.89 454.68 149.68 456.38 C 134.69 449.37 120.45 440.78 107.23 430.83 C 104.59 428.75 101.93 426.68 99.34 424.54 C 100.78 423.84 101.89 422.73 102.37 421.19 C 100.68 419.69 101.02 417.49 101.48 415.54 Z" />
<path fill="#91d3ef" d=" M 77.97 431.09 C 87.73 430.95 97.48 431.10 107.23 430.83 C 120.45 440.78 134.69 449.37 149.68 456.38 C 154.49 458.68 159.38 460.78 164.32 462.76 C 149.53 463.45 134.71 462.60 119.92 463.15 C 104.92 453.89 90.69 443.31 77.97 431.09 Z" />
<path fill="#96daf4" d=" M 245.96 478.88 C 290.20 479.93 334.67 468.33 372.71 445.69 C 383.89 446.71 395.14 445.71 406.34 446.31 C 359.39 483.49 298.64 502.58 238.89 499.45 C 197.03 497.60 155.67 485.00 119.92 463.15 C 134.71 462.60 149.53 463.45 164.32 462.76 C 190.31 472.86 218.08 478.35 245.96 478.88 Z" />
</svg>
