<?xml version="1.0" encoding="UTF-8" ?>
<!DOCTYPE svg PUBLIC "-//W3C//DTD SVG 1.1//EN" "http://www.w3.org/Graphics/SVG/1.1/DTD/svg11.dtd">
<svg width="512pt" height="512pt" viewBox="0 0 512 512" version="1.1" xmlns="http://www.w3.org/2000/svg">
<path fill="#ffffff" d=" M 0.00 0.00 L 512.00 0.00 L 512.00 246.68 C 511.49 238.89 510.94 231.10 509.90 223.36 C 504.86 185.33 491.08 148.51 469.92 116.51 C 451.77 88.98 428.23 65.06 401.10 46.33 C 366.73 22.68 326.51 7.59 285.04 3.00 C 254.03 -0.37 222.37 1.56 192.14 9.40 C 158.69 17.93 127.04 33.41 99.72 54.51 C 69.85 77.50 45.15 107.15 27.94 140.69 C 17.62 160.84 10.00 182.37 5.33 204.53 C 2.37 218.42 0.78 232.56 0.00 246.73 L 0.00 0.00 Z" />
<path fill="#fcbb00" d=" M 192.14 9.40 C 222.37 1.56 254.03 -0.37 285.04 3.00 C 326.51 7.59 366.73 22.68 401.10 46.33 C 398.58 46.86 396.15 47.75 394.23 49.52 C 379.97 40.24 364.88 32.18 349.11 25.80 C 310.03 9.81 266.78 4.47 224.93 9.67 C 182.51 14.75 141.80 31.57 107.44 56.83 C 104.87 56.03 102.29 55.27 99.72 54.51 C 127.04 33.41 158.69 17.93 192.14 9.40 Z" />
<path fill="#fdd900" d=" M 224.93 9.67 C 266.78 4.47 310.03 9.81 349.11 25.80 C 364.88 32.18 379.97 40.24 394.23 49.52 C 422.58 68.44 446.80 93.31 465.45 121.80 C 485.50 152.42 498.21 187.66 503.25 223.86 C 504.71 234.21 505.22 244.68 505.71 255.12 C 505.02 249.62 504.53 244.10 504.00 238.58 C 502.31 221.67 498.60 204.99 493.42 188.81 C 486.65 167.56 476.71 147.35 464.48 128.72 C 452.78 110.54 438.23 94.29 422.25 79.77 C 379.45 41.00 322.70 18.17 264.99 16.27 C 224.72 14.82 184.07 23.18 147.82 40.83 C 126.79 51.00 107.08 64.05 89.76 79.75 C 76.79 91.54 64.72 104.40 54.49 118.66 C 45.03 131.61 36.76 145.45 29.99 159.98 C 22.68 175.56 16.90 191.86 13.02 208.64 C 10.27 220.97 8.16 233.47 7.41 246.10 C 6.80 233.14 9.01 220.23 11.55 207.57 C 16.17 185.08 23.71 163.16 34.36 142.80 C 51.91 109.17 76.94 79.42 107.44 56.83 C 141.80 31.57 182.51 14.75 224.93 9.67 Z" />
<path fill="#fbb800" d=" M 147.82 40.83 C 184.07 23.18 224.72 14.82 264.99 16.27 C 322.70 18.17 379.45 41.00 422.25 79.77 C 412.72 80.22 403.18 79.78 393.65 80.29 C 367.32 59.87 336.47 45.26 303.87 38.25 C 263.02 29.35 219.66 32.04 180.31 46.23 C 158.00 54.13 137.10 65.83 118.37 80.27 C 108.84 79.60 99.29 80.29 89.76 79.75 C 107.08 64.05 126.79 51.00 147.82 40.83 Z" />
<path fill="#e18e00" d=" M 180.31 46.23 C 219.66 32.04 263.02 29.35 303.87 38.25 C 336.47 45.26 367.32 59.87 393.65 80.29 C 411.24 94.29 427.02 110.60 439.93 129.03 C 451.35 145.58 460.66 163.57 467.56 182.47 C 464.74 182.78 461.89 182.80 459.08 182.51 C 447.56 150.41 427.82 121.33 402.72 98.30 C 377.04 74.62 345.63 57.14 311.83 48.20 C 275.73 38.60 237.14 38.51 201.00 47.99 C 166.91 56.83 135.21 74.40 109.34 98.25 C 85.34 120.11 66.60 147.61 54.58 177.73 C 53.78 179.63 52.99 181.54 52.29 183.49 C 49.70 183.12 47.11 182.74 44.52 182.36 C 47.40 174.79 50.54 167.32 53.96 159.97 C 60.94 145.53 69.57 131.93 79.34 119.22 C 90.69 104.70 103.99 91.77 118.37 80.27 C 137.10 65.83 158.00 54.13 180.31 46.23 Z" />
<path fill="#febd00" d=" M 201.00 47.99 C 237.14 38.51 275.73 38.60 311.83 48.20 C 345.63 57.14 377.04 74.62 402.72 98.30 C 397.84 99.11 392.89 99.16 387.96 99.05 C 301.31 99.03 214.67 99.06 128.03 99.03 C 121.79 99.11 115.50 99.45 109.34 98.25 C 135.21 74.40 166.91 56.83 201.00 47.99 Z" />
<path fill="#f8b400" d=" M 394.23 49.52 C 396.15 47.75 398.58 46.86 401.10 46.33 C 428.23 65.06 451.77 88.98 469.92 116.51 C 468.41 118.26 466.94 120.04 465.45 121.80 C 446.80 93.31 422.58 68.44 394.23 49.52 Z" />
<path fill="#f7b300" d=" M 27.94 140.69 C 45.15 107.15 69.85 77.50 99.72 54.51 C 102.29 55.27 104.87 56.03 107.44 56.83 C 76.94 79.42 51.91 109.17 34.36 142.80 C 32.22 142.09 30.08 141.39 27.94 140.69 Z" />
<path fill="#f7b300" d=" M 54.49 118.66 C 64.72 104.40 76.79 91.54 89.76 79.75 C 99.29 80.29 108.84 79.60 118.37 80.27 C 103.99 91.77 90.69 104.70 79.34 119.22 C 71.06 118.76 62.76 119.26 54.49 118.66 Z" />
<path fill="#f7b200" d=" M 393.65 80.29 C 403.18 79.78 412.72 80.22 422.25 79.77 C 438.23 94.29 452.78 110.54 464.48 128.72 C 456.30 129.18 448.11 128.88 439.93 129.03 C 427.02 110.60 411.24 94.29 393.65 80.29 Z" />
<path fill="#f9b600" d=" M 54.58 177.73 C 66.60 147.61 85.34 120.11 109.34 98.25 C 115.50 99.45 121.79 99.11 128.03 99.03 C 214.67 99.06 301.31 99.03 387.96 99.05 C 392.89 99.16 397.84 99.11 402.72 98.30 C 427.82 121.33 447.56 150.41 459.08 182.51 C 459.46 183.59 459.87 184.68 460.28 185.76 C 444.20 186.16 428.12 185.72 412.04 185.97 C 408.20 186.09 404.36 185.93 400.53 185.60 C 399.29 176.32 398.64 166.59 393.99 158.24 C 390.41 151.84 387.32 145.11 382.78 139.31 C 378.25 133.51 372.83 128.44 366.93 124.07 C 365.34 122.72 363.21 122.69 361.26 122.38 C 350.76 116.97 340.27 111.13 328.66 108.41 C 308.76 102.92 287.77 103.02 267.41 105.45 C 251.67 106.85 236.21 111.14 222.01 118.07 C 206.87 126.07 192.96 137.01 183.41 151.39 C 179.77 156.90 176.97 162.92 174.37 168.98 C 173.16 169.52 171.95 170.04 170.74 170.56 C 169.36 173.22 168.99 178.06 165.09 177.93 C 154.07 178.31 143.03 177.94 132.00 177.93 C 106.19 177.99 80.38 178.12 54.58 177.73 Z" />
<path fill="#ffbf00" d=" M 267.41 105.45 C 287.77 103.02 308.76 102.92 328.66 108.41 C 340.27 111.13 350.76 116.97 361.26 122.38 C 367.29 126.53 372.21 131.92 377.20 137.21 C 385.24 148.94 391.21 162.64 391.41 177.05 C 391.62 182.50 386.21 186.86 381.00 186.70 C 364.33 186.76 347.66 186.58 331.00 186.76 C 327.36 186.80 323.75 186.36 320.17 185.81 C 314.23 178.94 313.83 168.78 306.67 162.77 C 299.49 155.51 288.82 153.56 279.00 153.66 C 268.09 153.76 257.97 159.95 251.30 168.32 C 247.19 173.68 243.73 180.05 243.93 187.00 C 244.11 199.42 243.74 211.86 244.09 224.28 L 244.14 224.93 C 261.29 224.94 278.46 224.43 295.60 225.11 C 296.69 226.11 297.74 227.19 298.85 228.18 C 299.13 239.46 298.91 250.74 299.03 262.01 C 298.94 264.71 299.16 267.94 296.85 269.85 C 295.08 271.65 292.40 271.69 290.05 271.75 C 274.69 271.73 259.34 271.62 243.99 271.77 C 244.01 300.55 243.93 329.33 244.01 358.12 C 244.57 358.10 245.67 358.06 246.23 358.04 C 282.48 357.92 318.74 358.01 354.99 357.97 C 363.19 358.06 371.39 357.73 379.58 358.24 C 380.66 359.25 381.76 360.26 382.87 361.25 C 383.62 373.16 382.94 385.11 383.22 397.05 C 383.04 400.39 383.72 404.48 380.98 407.01 C 379.16 408.88 376.39 408.92 373.97 409.01 C 302.62 408.99 231.28 409.00 159.94 409.00 C 154.88 409.09 149.80 409.09 144.79 408.24 C 143.33 405.73 142.14 402.96 142.24 400.00 C 142.17 393.78 142.34 387.56 142.07 381.35 C 143.14 373.68 140.17 365.05 145.03 358.27 C 153.34 357.62 161.66 358.08 169.98 357.91 C 170.05 333.47 170.08 309.03 169.86 284.60 C 169.99 282.04 170.03 279.47 170.05 276.91 C 170.04 275.20 170.00 273.48 170.00 271.78 C 158.01 271.30 145.97 272.43 134.02 271.12 C 133.32 269.75 132.57 268.41 131.95 267.01 C 131.77 256.34 132.04 245.65 131.78 234.98 C 131.96 232.19 131.37 228.77 133.61 226.64 C 135.52 224.64 138.51 224.91 141.03 224.77 C 150.66 224.76 160.29 225.04 169.91 224.73 C 170.81 206.14 167.77 186.86 174.37 168.98 C 176.97 162.92 179.77 156.90 183.41 151.39 C 192.96 137.01 206.87 126.07 222.01 118.07 C 236.21 111.14 251.67 106.85 267.41 105.45 Z" />
<path fill="#ffdb70" d=" M 258.77 109.57 C 276.42 107.16 294.41 105.77 312.13 108.24 C 328.41 110.51 344.22 116.14 358.23 124.73 C 371.01 132.82 380.37 145.68 385.24 159.91 C 387.43 166.45 389.04 173.33 388.70 180.27 C 386.57 164.18 379.79 148.37 367.94 137.04 C 360.48 129.57 350.92 124.70 341.30 120.61 C 322.68 112.78 302.14 110.24 282.08 111.59 C 268.01 112.59 253.80 113.86 240.33 118.29 C 216.35 125.91 194.18 141.48 181.73 163.70 C 176.20 173.62 172.80 184.78 172.46 196.17 C 171.20 180.66 177.10 165.31 185.68 152.61 C 202.43 128.62 230.18 113.85 258.77 109.57 Z" />
<path fill="#f3ab00" d=" M 465.45 121.80 C 466.94 120.04 468.41 118.26 469.92 116.51 C 491.08 148.51 504.86 185.33 509.90 223.36 C 507.67 223.41 505.45 223.58 503.25 223.86 C 498.21 187.66 485.50 152.42 465.45 121.80 Z" />
<path fill="#f5ae00" d=" M 29.99 159.98 C 36.76 145.45 45.03 131.61 54.49 118.66 C 62.76 119.26 71.06 118.76 79.34 119.22 C 69.57 131.93 60.94 145.53 53.96 159.97 C 45.97 160.03 37.98 159.91 29.99 159.98 Z" />
<path fill="#f2ab00" d=" M 361.26 122.38 C 363.21 122.69 365.34 122.72 366.93 124.07 C 372.83 128.44 378.25 133.51 382.78 139.31 C 387.32 145.11 390.41 151.84 393.99 158.24 C 398.64 166.59 399.29 176.32 400.53 185.60 C 404.36 185.93 408.20 186.09 412.04 185.97 C 428.12 185.72 444.20 186.16 460.28 185.76 C 470.12 213.27 474.04 242.91 472.07 272.04 C 451.36 271.55 430.66 272.42 409.95 271.89 C 383.32 272.23 356.69 272.03 330.06 271.93 C 322.88 271.82 315.69 272.39 308.54 271.58 C 306.76 259.51 306.86 247.28 305.62 235.17 C 304.85 230.19 301.45 224.26 295.60 225.11 C 278.46 224.43 261.29 224.94 244.14 224.93 L 244.09 224.28 C 245.54 224.05 247.00 223.86 248.46 223.69 C 247.67 214.68 247.96 205.64 247.60 196.62 C 247.32 188.60 248.84 180.28 253.51 173.62 C 259.96 164.79 269.76 157.59 280.98 156.96 C 286.59 156.65 292.54 156.60 297.72 159.12 C 300.61 160.54 303.51 162.01 306.67 162.77 C 313.83 168.78 314.23 178.94 320.17 185.81 C 321.70 188.78 324.44 191.12 327.98 190.85 C 346.64 190.96 365.32 190.84 383.98 190.92 C 389.11 191.21 394.65 187.42 395.00 182.05 C 395.69 173.87 394.62 165.38 391.23 157.86 C 388.36 151.88 385.41 145.86 381.51 140.47 C 380.47 138.92 378.76 138.10 377.20 137.21 C 372.21 131.92 367.29 126.53 361.26 122.38 Z" />
<path fill="#f4ad00" d=" M 439.93 129.03 C 448.11 128.88 456.30 129.18 464.48 128.72 C 476.71 147.35 486.65 167.56 493.42 188.81 C 485.56 189.16 477.69 188.89 469.83 189.05 C 469.16 186.83 468.37 184.64 467.56 182.47 C 460.66 163.57 451.35 145.58 439.93 129.03 Z" />
<path fill="#e3a200" d=" M 377.20 137.21 C 378.76 138.10 380.47 138.92 381.51 140.47 C 385.41 145.86 388.36 151.88 391.23 157.86 C 394.62 165.38 395.69 173.87 395.00 182.05 C 394.65 187.42 389.11 191.21 383.98 190.92 C 365.32 190.84 346.64 190.96 327.98 190.85 C 324.44 191.12 321.70 188.78 320.17 185.81 C 323.75 186.36 327.36 186.80 331.00 186.76 C 347.66 186.58 364.33 186.76 381.00 186.70 C 386.21 186.86 391.62 182.50 391.41 177.05 C 391.21 162.64 385.24 148.94 377.20 137.21 Z" />
<path fill="#f3ab00" d=" M 5.33 204.53 C 10.00 182.37 17.62 160.84 27.94 140.69 C 30.08 141.39 32.22 142.09 34.36 142.80 C 23.71 163.16 16.17 185.08 11.55 207.57 C 9.48 206.55 7.41 205.53 5.33 204.53 Z" />
<path fill="#e0a000" d=" M 251.30 168.32 C 257.97 159.95 268.09 153.76 279.00 153.66 C 288.82 153.56 299.49 155.51 306.67 162.77 C 303.51 162.01 300.61 160.54 297.72 159.12 C 292.54 156.60 286.59 156.65 280.98 156.96 C 269.76 157.59 259.96 164.79 253.51 173.62 C 248.84 180.28 247.32 188.60 247.60 196.62 C 247.96 205.64 247.67 214.68 248.46 223.69 C 247.00 223.86 245.54 224.05 244.09 224.28 C 243.74 211.86 244.11 199.42 243.93 187.00 C 243.73 180.05 247.19 173.68 251.30 168.32 Z" />
<path fill="#f2aa00" d=" M 29.99 159.98 C 37.98 159.91 45.97 160.03 53.96 159.97 C 50.54 167.32 47.40 174.79 44.52 182.36 C 41.42 190.70 38.99 199.28 37.06 207.96 C 29.05 208.11 20.99 207.52 13.02 208.64 C 16.90 191.86 22.68 175.56 29.99 159.98 Z" />
<path fill="#f3ac00" d=" M 170.74 170.56 C 171.95 170.04 173.16 169.52 174.37 168.98 C 167.77 186.86 170.81 206.14 169.91 224.73 C 160.29 225.04 150.66 224.76 141.03 224.77 C 138.51 224.91 135.52 224.64 133.61 226.64 C 131.37 228.77 131.96 232.19 131.78 234.98 C 132.04 245.65 131.77 256.34 131.95 267.01 C 130.22 263.62 130.79 259.69 130.73 256.03 C 130.73 247.98 130.93 239.93 130.46 231.90 C 129.84 236.85 129.33 241.83 128.66 246.78 C 99.03 247.34 69.37 246.83 39.73 246.98 C 40.81 225.34 45.10 203.92 52.29 183.49 C 52.99 181.54 53.78 179.63 54.58 177.73 C 80.38 178.12 106.19 177.99 132.00 177.93 C 143.03 177.94 154.07 178.31 165.09 177.93 C 168.99 178.06 169.36 173.22 170.74 170.56 Z" />
<path fill="#e59500" d=" M 37.06 207.96 C 38.99 199.28 41.42 190.70 44.52 182.36 C 47.11 182.74 49.70 183.12 52.29 183.49 C 45.10 203.92 40.81 225.34 39.73 246.98 C 38.92 253.70 38.86 260.47 39.53 267.20 C 40.07 277.62 41.24 288.01 43.11 298.28 C 40.58 298.04 38.05 297.78 35.52 297.53 C 33.82 291.18 33.49 284.60 32.71 278.10 C 31.26 267.63 33.28 257.04 31.67 246.57 C 32.51 233.58 34.42 220.70 37.06 207.96 Z" />
<path fill="#e59500" d=" M 459.08 182.51 C 461.89 182.80 464.74 182.78 467.56 182.47 C 468.37 184.64 469.16 186.83 469.83 189.05 C 474.22 203.28 477.42 217.86 479.14 232.66 C 480.14 247.00 480.66 261.42 479.58 275.77 C 478.61 283.10 478.05 290.51 476.41 297.74 C 473.97 297.89 471.54 298.03 469.11 298.14 C 470.15 289.45 472.05 280.84 472.07 272.04 C 474.04 242.91 470.12 213.27 460.28 185.76 C 459.87 184.68 459.46 183.59 459.08 182.51 Z" />
<path fill="#f0a700" d=" M 469.83 189.05 C 477.69 188.89 485.56 189.16 493.42 188.81 C 498.60 204.99 502.31 221.67 504.00 238.58 C 496.27 237.41 488.45 238.49 480.69 237.78 C 480.15 236.07 479.61 234.37 479.14 232.66 C 477.42 217.86 474.22 203.28 469.83 189.05 Z" />
<path fill="#efa400" d=" M 5.33 204.53 C 7.41 205.53 9.48 206.55 11.55 207.57 C 9.01 220.23 6.80 233.14 7.41 246.10 C 8.16 233.47 10.27 220.97 13.02 208.64 C 20.99 207.52 29.05 208.11 37.06 207.96 C 34.42 220.70 32.51 233.58 31.67 246.57 C 30.28 253.25 31.10 260.07 30.73 266.83 C 20.50 267.37 10.24 267.03 0.00 267.02 L 0.00 246.73 C 0.78 232.56 2.37 218.42 5.33 204.53 Z" />
<path fill="#eda300" d=" M 503.25 223.86 C 505.45 223.58 507.67 223.41 509.90 223.36 C 510.94 231.10 511.49 238.89 512.00 246.68 L 512.00 268.27 C 511.89 270.86 511.58 273.43 511.49 276.03 C 500.86 275.88 490.21 276.22 479.58 275.77 C 480.66 261.42 480.14 247.00 479.14 232.66 C 479.61 234.37 480.15 236.07 480.69 237.78 C 488.45 238.49 496.27 237.41 504.00 238.58 C 504.53 244.10 505.02 249.62 505.71 255.12 C 505.22 244.68 504.71 234.21 503.25 223.86 Z" />
<path fill="#ea9e00" d=" M 295.60 225.11 C 301.45 224.26 304.85 230.19 305.62 235.17 C 306.86 247.28 306.76 259.51 308.54 271.58 C 315.69 272.39 322.88 271.82 330.06 271.93 C 356.69 272.03 383.32 272.23 409.95 271.89 C 430.66 272.42 451.36 271.55 472.07 272.04 C 472.05 280.84 470.15 289.45 469.11 298.14 C 471.54 298.03 473.97 297.89 476.41 297.74 C 478.05 290.51 478.61 283.10 479.58 275.77 C 490.21 276.22 500.86 275.88 511.49 276.03 C 509.30 306.63 501.61 336.83 488.74 364.69 C 483.86 363.78 478.90 363.76 473.97 363.92 C 467.97 364.10 461.94 363.51 455.96 364.09 C 453.19 364.06 452.19 367.02 450.92 368.94 C 442.09 384.56 430.74 398.53 418.77 411.83 C 412.83 417.53 407.31 423.69 400.84 428.83 C 393.36 435.11 385.53 440.98 377.33 446.29 C 370.93 450.42 364.12 453.84 357.61 457.79 C 321.13 476.03 279.72 484.56 239.01 481.32 C 205.97 478.70 173.34 469.09 144.69 452.30 C 129.23 443.77 115.03 433.03 102.23 420.89 C 98.37 416.71 94.23 412.80 90.28 408.72 C 85.37 403.27 80.78 397.54 76.24 391.78 C 79.21 391.30 82.19 390.93 85.19 390.63 C 89.56 396.55 94.21 402.28 99.72 407.18 C 129.49 438.69 169.16 460.70 211.58 469.54 C 253.38 478.37 297.78 474.40 337.34 458.30 C 352.52 451.93 367.18 444.18 380.57 434.58 C 391.96 426.51 402.89 417.61 412.10 407.07 C 405.88 406.52 399.64 406.84 393.42 406.71 C 393.86 398.85 390.89 391.40 390.58 383.61 C 390.10 378.07 390.46 372.41 389.06 366.99 C 387.92 362.62 384.48 358.20 379.58 358.24 C 371.39 357.73 363.19 358.06 354.99 357.97 C 318.74 358.01 282.48 357.92 246.23 358.04 C 247.92 356.45 248.50 354.20 248.34 351.93 C 247.98 329.63 248.28 307.32 247.76 285.02 C 247.96 282.56 247.42 279.35 249.70 277.69 C 251.94 276.53 254.58 276.78 257.02 276.68 C 268.00 276.86 278.99 276.70 289.97 276.86 C 293.52 276.79 297.65 277.08 300.32 274.27 C 303.05 272.04 303.82 268.40 303.79 265.03 C 304.14 254.67 303.11 244.33 302.64 233.99 C 302.67 231.41 300.67 229.68 298.85 228.18 C 297.74 227.19 296.69 226.11 295.60 225.11 Z" />
<path fill="#ffdb70" d=" M 135.96 228.89 C 138.11 226.16 141.87 226.45 144.97 226.47 C 154.09 226.65 163.22 226.26 172.32 226.67 C 172.29 228.11 172.25 229.55 172.22 230.99 C 161.78 231.07 151.33 230.90 140.89 231.05 C 137.34 230.89 135.31 234.16 134.15 237.05 C 134.33 234.28 133.85 231.08 135.96 228.89 Z" />
<path fill="#ffdb70" d=" M 244.11 226.46 C 260.03 226.62 275.95 226.35 291.86 226.58 C 296.52 226.70 299.07 231.74 298.37 235.94 C 296.57 233.56 294.49 230.61 291.06 231.02 C 275.36 230.95 259.66 231.04 243.96 230.99 C 244.01 229.47 244.06 227.97 244.11 226.46 Z" />
<path fill="#db9600" d=" M 298.85 228.18 C 300.67 229.68 302.67 231.41 302.64 233.99 C 303.11 244.33 304.14 254.67 303.79 265.03 C 303.82 268.40 303.05 272.04 300.32 274.27 C 297.65 277.08 293.52 276.79 289.97 276.86 C 278.99 276.70 268.00 276.86 257.02 276.68 C 254.58 276.78 251.94 276.53 249.70 277.69 C 247.42 279.35 247.96 282.56 247.76 285.02 C 248.28 307.32 247.98 329.63 248.34 351.93 C 248.50 354.20 247.92 356.45 246.23 358.04 C 245.67 358.06 244.57 358.10 244.01 358.12 C 243.93 329.33 244.01 300.55 243.99 271.77 C 259.34 271.62 274.69 271.73 290.05 271.75 C 292.40 271.69 295.08 271.65 296.85 269.85 C 299.16 267.94 298.94 264.71 299.03 262.01 C 298.91 250.74 299.13 239.46 298.85 228.18 Z" />
<path fill="#eea300" d=" M 130.46 231.90 C 130.93 239.93 130.73 247.98 130.73 256.03 C 130.79 259.69 130.22 263.62 131.95 267.01 C 132.57 268.41 133.32 269.75 134.02 271.12 C 135.22 275.93 140.87 276.44 145.00 276.74 C 153.34 276.90 161.70 277.01 170.05 276.91 C 170.03 279.47 169.99 282.04 169.86 284.60 C 168.07 291.94 168.09 299.55 166.63 306.95 C 166.62 309.31 163.66 308.80 162.07 309.05 C 128.06 308.94 94.04 308.98 60.03 308.97 C 55.24 309.10 50.45 309.11 45.69 308.54 C 44.78 305.13 43.82 301.73 43.11 298.28 C 41.24 288.01 40.07 277.62 39.53 267.20 C 38.86 260.47 38.92 253.70 39.73 246.98 C 69.37 246.83 99.03 247.34 128.66 246.78 C 129.33 241.83 129.84 236.85 130.46 231.90 Z" />
<path fill="#e99c00" d=" M 30.73 266.83 C 31.10 260.07 30.28 253.25 31.67 246.57 C 33.28 257.04 31.26 267.63 32.71 278.10 C 33.49 284.60 33.82 291.18 35.52 297.53 C 38.05 297.78 40.58 298.04 43.11 298.28 C 43.82 301.73 44.78 305.13 45.69 308.54 C 50.45 309.11 55.24 309.10 60.03 308.97 C 94.04 308.98 128.06 308.94 162.07 309.05 C 163.66 308.80 166.62 309.31 166.63 306.95 C 168.09 299.55 168.07 291.94 169.86 284.60 C 170.08 309.03 170.05 333.47 169.98 357.91 C 161.66 358.08 153.34 357.62 145.03 358.27 C 140.14 359.23 138.80 364.52 138.43 368.80 C 116.02 369.23 93.58 368.75 71.15 369.08 C 75.10 376.71 80.03 383.78 85.19 390.63 C 82.19 390.93 79.21 391.30 76.24 391.78 C 71.79 386.13 68.00 379.99 64.00 374.03 C 61.81 370.89 60.57 366.99 57.66 364.42 C 54.18 363.61 50.56 363.94 47.01 363.93 C 39.10 364.22 31.13 363.32 23.28 364.73 C 9.26 334.53 1.55 301.54 0.00 268.31 L 0.00 267.02 C 10.24 267.03 20.50 267.37 30.73 266.83 Z" />
<path fill="#ffffff" d=" M 0.00 268.31 C 1.55 301.54 9.26 334.53 23.28 364.73 C 32.74 385.21 44.90 404.45 59.39 421.74 C 90.84 459.51 133.40 487.92 180.40 502.33 C 195.43 507.01 210.91 510.14 226.53 512.00 L 0.00 512.00 L 0.00 268.31 Z" />
<path fill="#ffffff" d=" M 511.49 276.03 C 511.58 273.43 511.89 270.86 512.00 268.27 L 512.00 512.00 L 285.52 512.00 C 332.38 506.68 377.61 488.00 414.58 458.72 C 431.51 445.39 446.72 429.89 459.79 412.76 C 471.14 397.85 480.90 381.71 488.74 364.69 C 501.61 336.83 509.30 306.63 511.49 276.03 Z" />
<path fill="#db9700" d=" M 145.00 276.74 C 140.87 276.44 135.22 275.93 134.02 271.12 C 145.97 272.43 158.01 271.30 170.00 271.78 C 170.00 273.48 170.04 275.20 170.05 276.91 C 161.70 277.01 153.34 276.90 145.00 276.74 Z" />
<path fill="#e59500" d=" M 138.43 368.80 C 138.80 364.52 140.14 359.23 145.03 358.27 C 140.17 365.05 143.14 373.68 142.07 381.35 C 138.26 389.14 140.18 398.13 138.33 406.34 C 136.02 407.27 133.46 407.11 131.02 407.16 C 120.59 406.95 110.15 406.83 99.72 407.18 C 94.21 402.28 89.56 396.55 85.19 390.63 C 80.03 383.78 75.10 376.71 71.15 369.08 C 93.58 368.75 116.02 369.23 138.43 368.80 Z" />
<path fill="#e18f00" d=" M 379.58 358.24 C 384.48 358.20 387.92 362.62 389.06 366.99 C 390.46 372.41 390.10 378.07 390.58 383.61 C 390.89 391.40 393.86 398.85 393.42 406.71 C 399.64 406.84 405.88 406.52 412.10 407.07 C 402.89 417.61 391.96 426.51 380.57 434.58 C 367.18 444.18 352.52 451.93 337.34 458.30 C 297.78 474.40 253.38 478.37 211.58 469.54 C 169.16 460.70 129.49 438.69 99.72 407.18 C 110.15 406.83 120.59 406.95 131.02 407.16 C 133.46 407.11 136.02 407.27 138.33 406.34 C 140.18 398.13 138.26 389.14 142.07 381.35 C 142.34 387.56 142.17 393.78 142.24 400.00 C 142.14 402.96 143.33 405.73 144.79 408.24 C 146.35 410.58 148.24 413.14 151.21 413.63 C 155.41 414.38 159.71 413.87 163.95 413.89 C 234.98 413.89 306.01 413.87 377.03 413.90 C 381.07 414.08 385.60 412.03 386.84 407.93 C 388.73 401.45 387.54 394.63 387.21 388.03 C 386.57 381.08 387.34 374.08 386.62 367.15 C 386.52 364.61 384.64 362.82 382.87 361.25 C 381.76 360.26 380.66 359.25 379.58 358.24 Z" />
<path fill="#ffdb70" d=" M 144.66 370.77 C 144.40 366.93 145.71 362.18 150.02 361.31 C 157.42 360.58 164.89 361.19 172.32 361.01 C 172.22 362.52 172.16 364.04 172.06 365.55 C 165.04 365.55 158.02 365.33 151.01 365.60 C 147.91 365.66 146.33 368.64 144.66 370.77 Z" />
<path fill="#ffdb70" d=" M 243.96 361.01 C 286.64 360.98 329.32 361.02 372.00 360.99 C 374.40 360.96 377.10 361.27 378.71 363.29 C 381.03 365.55 380.40 369.03 380.75 371.94 C 379.80 369.84 379.01 367.33 376.77 366.27 C 374.35 365.13 371.59 365.56 369.01 365.47 C 327.37 365.57 285.74 365.42 244.11 365.54 C 244.06 364.03 244.00 362.52 243.96 361.01 Z" />
<path fill="#d18700" d=" M 382.87 361.25 C 384.64 362.82 386.52 364.61 386.62 367.15 C 387.34 374.08 386.57 381.08 387.21 388.03 C 387.54 394.63 388.73 401.45 386.84 407.93 C 385.60 412.03 381.07 414.08 377.03 413.90 C 306.01 413.87 234.98 413.89 163.95 413.89 C 159.71 413.87 155.41 414.38 151.21 413.63 C 148.24 413.14 146.35 410.58 144.79 408.24 C 149.80 409.09 154.88 409.09 159.94 409.00 C 231.28 409.00 302.62 408.99 373.97 409.01 C 376.39 408.92 379.16 408.88 380.98 407.01 C 383.72 404.48 383.04 400.39 383.22 397.05 C 382.94 385.11 383.62 373.16 382.87 361.25 Z" />
<path fill="#e59400" d=" M 23.28 364.73 C 31.13 363.32 39.10 364.22 47.01 363.93 C 50.56 363.94 54.18 363.61 57.66 364.42 C 60.57 366.99 61.81 370.89 64.00 374.03 C 68.00 379.99 71.79 386.13 76.24 391.78 C 80.78 397.54 85.37 403.27 90.28 408.72 C 94.23 412.80 98.37 416.71 102.23 420.89 C 87.96 421.70 73.61 420.21 59.39 421.74 C 44.90 404.45 32.74 385.21 23.28 364.73 Z" />
<path fill="#e59500" d=" M 450.92 368.94 C 452.19 367.02 453.19 364.06 455.96 364.09 C 461.94 363.51 467.97 364.10 473.97 363.92 C 478.90 363.76 483.86 363.78 488.74 364.69 C 480.90 381.71 471.14 397.85 459.79 412.76 C 456.87 412.29 453.93 411.88 450.97 411.90 C 440.24 412.09 429.50 412.05 418.77 411.83 C 430.74 398.53 442.09 384.56 450.92 368.94 Z" />
<path fill="#e29000" d=" M 400.84 428.83 C 407.31 423.69 412.83 417.53 418.77 411.83 C 429.50 412.05 440.24 412.09 450.97 411.90 C 453.93 411.88 456.87 412.29 459.79 412.76 C 446.72 429.89 431.51 445.39 414.58 458.72 C 412.07 458.37 409.55 458.05 407.02 457.98 C 390.55 457.89 374.08 458.27 357.61 457.79 C 364.12 453.84 370.93 450.42 377.33 446.29 C 385.53 440.98 393.36 435.11 400.84 428.83 Z" />
<path fill="#df8b00" d=" M 59.39 421.74 C 73.61 420.21 87.96 421.70 102.23 420.89 C 115.03 433.03 129.23 443.77 144.69 452.30 C 173.34 469.09 205.97 478.70 239.01 481.32 C 279.72 484.56 321.13 476.03 357.61 457.79 C 374.08 458.27 390.55 457.89 407.02 457.98 C 409.55 458.05 412.07 458.37 414.58 458.72 C 377.61 488.00 332.38 506.68 285.52 512.00 L 226.53 512.00 C 210.91 510.14 195.43 507.01 180.40 502.33 C 133.40 487.92 90.84 459.51 59.39 421.74 Z" />
</svg>
